<?xml version="1.0" encoding="UTF-8" standalone="no"?>
<!DOCTYPE svg PUBLIC "-//W3C//DTD SVG 1.1//EN"
 "http://www.w3.org/Graphics/SVG/1.1/DTD/svg11.dtd">
<!-- Generated by graphviz version 2.40.1 (20161225.0304)
 -->
<!-- Title: %3 Pages: 1 -->
<svg width="3743pt" height="260pt"
 viewBox="0.00 0.00 3742.79 260.00" xmlns="http://www.w3.org/2000/svg" xmlns:xlink="http://www.w3.org/1999/xlink">
<g id="graph0" class="graph" transform="scale(1 1) rotate(0) translate(4 256)">
<title>%3</title>
<polygon fill="#ffffff" stroke="transparent" points="-4,4 -4,-256 3738.7924,-256 3738.7924,4 -4,4"/>
<!-- Cascade -->
<g id="node1" class="node">
<title>Cascade</title>
<ellipse fill="none" stroke="#000000" cx="430.5963" cy="-162" rx="49.2915" ry="18"/>
<text text-anchor="middle" x="430.5963" y="-158.3" font-family="Times,serif" font-size="14.00" fill="#000000">Cascade</text>
</g>
<!-- SISO -->
<g id="node2" class="node">
<title>SISO</title>
<ellipse fill="none" stroke="#000000" cx="947.5963" cy="-90" rx="34.394" ry="18"/>
<text text-anchor="middle" x="947.5963" y="-86.3" font-family="Times,serif" font-size="14.00" fill="#000000">SISO</text>
</g>
<!-- Cascade&#45;&gt;SISO -->
<g id="edge1" class="edge">
<title>Cascade&#45;&gt;SISO</title>
<path fill="none" stroke="#000000" d="M467.1557,-149.7384C474.5237,-147.5819 482.2595,-145.5388 489.5963,-144 639.3242,-112.5968 820.6949,-97.9882 903.0575,-92.5984"/>
<polygon fill="#000000" stroke="#000000" points="903.3161,-96.0891 913.0719,-91.9568 902.8685,-89.1034 903.3161,-96.0891"/>
</g>
<!-- Parallel -->
<g id="node3" class="node">
<title>Parallel</title>
<ellipse fill="none" stroke="#000000" cx="544.5963" cy="-162" rx="46.2923" ry="18"/>
<text text-anchor="middle" x="544.5963" y="-158.3" font-family="Times,serif" font-size="14.00" fill="#000000">Parallel</text>
</g>
<!-- Parallel&#45;&gt;SISO -->
<g id="edge2" class="edge">
<title>Parallel&#45;&gt;SISO</title>
<path fill="none" stroke="#000000" d="M578.9716,-149.8032C585.7515,-147.667 592.8546,-145.6149 599.5963,-144 707.3934,-118.1777 837.0468,-101.8464 903.5328,-94.5143"/>
<polygon fill="#000000" stroke="#000000" points="904.0848,-97.975 913.648,-93.4147 903.3283,-91.0159 904.0848,-97.975"/>
</g>
<!-- Feedback -->
<g id="node4" class="node">
<title>Feedback</title>
<ellipse fill="none" stroke="#000000" cx="662.5963" cy="-162" rx="53.8905" ry="18"/>
<text text-anchor="middle" x="662.5963" y="-158.3" font-family="Times,serif" font-size="14.00" fill="#000000">Feedback</text>
</g>
<!-- Feedback&#45;&gt;SISO -->
<g id="edge3" class="edge">
<title>Feedback&#45;&gt;SISO</title>
<path fill="none" stroke="#000000" d="M703.1987,-150.1433C710.6349,-148.0447 718.3381,-145.9188 725.5963,-144 788.2115,-127.4466 861.2646,-110.0415 905.9681,-99.6053"/>
<polygon fill="#000000" stroke="#000000" points="906.9347,-102.9739 915.8803,-97.297 905.347,-96.1563 906.9347,-102.9739"/>
</g>
<!-- Mixer -->
<g id="node5" class="node">
<title>Mixer</title>
<ellipse fill="none" stroke="#000000" cx="772.5963" cy="-162" rx="38.1938" ry="18"/>
<text text-anchor="middle" x="772.5963" y="-158.3" font-family="Times,serif" font-size="14.00" fill="#000000">Mixer</text>
</g>
<!-- Mixer&#45;&gt;SISO -->
<g id="edge4" class="edge">
<title>Mixer&#45;&gt;SISO</title>
<path fill="none" stroke="#000000" d="M801.494,-150.1107C831.4067,-137.8037 878.2302,-118.5392 910.7768,-105.1486"/>
<polygon fill="#000000" stroke="#000000" points="912.4685,-108.2373 920.3846,-101.1957 909.805,-101.7638 912.4685,-108.2373"/>
</g>
<!-- Noise -->
<g id="node6" class="node">
<title>Noise</title>
<ellipse fill="none" stroke="#000000" cx="865.5963" cy="-162" rx="37.0935" ry="18"/>
<text text-anchor="middle" x="865.5963" y="-158.3" font-family="Times,serif" font-size="14.00" fill="#000000">Noise</text>
</g>
<!-- Noise&#45;&gt;SISO -->
<g id="edge5" class="edge">
<title>Noise&#45;&gt;SISO</title>
<path fill="none" stroke="#000000" d="M883.7948,-146.0209C895.0192,-136.1652 909.5868,-123.3742 921.9677,-112.5032"/>
<polygon fill="#000000" stroke="#000000" points="924.5257,-114.9148 929.7309,-105.6867 919.9071,-109.6547 924.5257,-114.9148"/>
</g>
<!-- AWGN -->
<g id="node7" class="node">
<title>AWGN</title>
<ellipse fill="none" stroke="#000000" cx="41.5963" cy="-234" rx="41.6928" ry="18"/>
<text text-anchor="middle" x="41.5963" y="-230.3" font-family="Times,serif" font-size="14.00" fill="#000000">AWGN</text>
</g>
<!-- AWGN&#45;&gt;Noise -->
<g id="edge6" class="edge">
<title>AWGN&#45;&gt;Noise</title>
<path fill="none" stroke="#000000" d="M71.8611,-221.4904C78.278,-219.2973 85.0828,-217.3033 91.5963,-216 409.2508,-152.4402 502.8435,-247.9106 819.5963,-180 822.6019,-179.3556 825.6676,-178.5388 828.7177,-177.6105"/>
<polygon fill="#000000" stroke="#000000" points="829.9774,-180.8789 838.3138,-174.3402 827.7193,-174.2531 829.9774,-180.8789"/>
</g>
<!-- PinkNoise -->
<g id="node8" class="node">
<title>PinkNoise</title>
<ellipse fill="none" stroke="#000000" cx="158.5963" cy="-234" rx="57.6901" ry="18"/>
<text text-anchor="middle" x="158.5963" y="-230.3" font-family="Times,serif" font-size="14.00" fill="#000000">PinkNoise</text>
</g>
<!-- PinkNoise&#45;&gt;Noise -->
<g id="edge7" class="edge">
<title>PinkNoise&#45;&gt;Noise</title>
<path fill="none" stroke="#000000" d="M200.1291,-221.4484C208.4948,-219.3158 217.2749,-217.3557 225.5963,-216 486.6392,-173.4723 561.301,-236.8817 819.5963,-180 822.5983,-179.3389 825.6614,-178.5101 828.7096,-177.5734"/>
<polygon fill="#000000" stroke="#000000" points="829.976,-180.8394 838.3024,-174.288 827.7078,-174.217 829.976,-180.8394"/>
</g>
<!-- BurstNoise -->
<g id="node9" class="node">
<title>BurstNoise</title>
<ellipse fill="none" stroke="#000000" cx="297.5963" cy="-234" rx="63.0888" ry="18"/>
<text text-anchor="middle" x="297.5963" y="-230.3" font-family="Times,serif" font-size="14.00" fill="#000000">BurstNoise</text>
</g>
<!-- BurstNoise&#45;&gt;Noise -->
<g id="edge8" class="edge">
<title>BurstNoise&#45;&gt;Noise</title>
<path fill="none" stroke="#000000" d="M343.0658,-221.4274C351.817,-219.3508 360.95,-217.4167 369.5963,-216 567.5952,-183.5584 624.0779,-225.0393 819.5963,-180 822.5917,-179.31 825.6501,-178.4603 828.6952,-177.5092"/>
<polygon fill="#000000" stroke="#000000" points="829.973,-180.7708 838.282,-174.1974 827.6873,-174.1545 829.973,-180.7708"/>
</g>
<!-- SaltAndPepperNoise -->
<g id="node10" class="node">
<title>SaltAndPepperNoise</title>
<ellipse fill="none" stroke="#000000" cx="485.5963" cy="-234" rx="106.6812" ry="18"/>
<text text-anchor="middle" x="485.5963" y="-230.3" font-family="Times,serif" font-size="14.00" fill="#000000">SaltAndPepperNoise</text>
</g>
<!-- SaltAndPepperNoise&#45;&gt;Noise -->
<g id="edge9" class="edge">
<title>SaltAndPepperNoise&#45;&gt;Noise</title>
<path fill="none" stroke="#000000" d="M563.8832,-221.7716C658.6908,-206.8989 807.3251,-183.3518 819.5963,-180 822.3883,-179.2374 825.2437,-178.363 828.0972,-177.4195"/>
<polygon fill="#000000" stroke="#000000" points="829.4462,-180.6547 837.6967,-174.008 827.102,-174.0588 829.4462,-180.6547"/>
</g>
<!-- IIR -->
<g id="node11" class="node">
<title>IIR</title>
<ellipse fill="none" stroke="#000000" cx="947.5963" cy="-162" rx="27" ry="18"/>
<text text-anchor="middle" x="947.5963" y="-158.3" font-family="Times,serif" font-size="14.00" fill="#000000">IIR</text>
</g>
<!-- IIR&#45;&gt;SISO -->
<g id="edge10" class="edge">
<title>IIR&#45;&gt;SISO</title>
<path fill="none" stroke="#000000" d="M947.5963,-143.8314C947.5963,-136.131 947.5963,-126.9743 947.5963,-118.4166"/>
<polygon fill="#000000" stroke="#000000" points="951.0964,-118.4132 947.5963,-108.4133 944.0964,-118.4133 951.0964,-118.4132"/>
</g>
<!-- FIR -->
<g id="node12" class="node">
<title>FIR</title>
<ellipse fill="none" stroke="#000000" cx="1019.5963" cy="-162" rx="27.0966" ry="18"/>
<text text-anchor="middle" x="1019.5963" y="-158.3" font-family="Times,serif" font-size="14.00" fill="#000000">FIR</text>
</g>
<!-- FIR&#45;&gt;SISO -->
<g id="edge11" class="edge">
<title>FIR&#45;&gt;SISO</title>
<path fill="none" stroke="#000000" d="M1004.327,-146.7307C994.6676,-137.0713 981.9878,-124.3915 971.066,-113.4696"/>
<polygon fill="#000000" stroke="#000000" points="973.3903,-110.8442 963.8443,-106.248 968.4405,-115.794 973.3903,-110.8442"/>
</g>
<!-- Gaussian -->
<g id="node13" class="node">
<title>Gaussian</title>
<ellipse fill="none" stroke="#000000" cx="1393.5963" cy="-234" rx="53.0913" ry="18"/>
<text text-anchor="middle" x="1393.5963" y="-230.3" font-family="Times,serif" font-size="14.00" fill="#000000">Gaussian</text>
</g>
<!-- Gaussian&#45;&gt;FIR -->
<g id="edge12" class="edge">
<title>Gaussian&#45;&gt;FIR</title>
<path fill="none" stroke="#000000" d="M1354.1618,-221.7691C1346.4009,-219.6359 1338.2817,-217.5937 1330.5963,-216 1210.3305,-191.0608 1174.2318,-215.3229 1056.5963,-180 1054.4284,-179.349 1052.2302,-178.5834 1050.0426,-177.7415"/>
<polygon fill="#000000" stroke="#000000" points="1051.2129,-174.4345 1040.6449,-173.6811 1048.4365,-180.8604 1051.2129,-174.4345"/>
</g>
<!-- Butterworth -->
<g id="node14" class="node">
<title>Butterworth</title>
<ellipse fill="none" stroke="#000000" cx="678.5963" cy="-234" rx="68.4888" ry="18"/>
<text text-anchor="middle" x="678.5963" y="-230.3" font-family="Times,serif" font-size="14.00" fill="#000000">Butterworth</text>
</g>
<!-- Butterworth&#45;&gt;IIR -->
<g id="edge13" class="edge">
<title>Butterworth&#45;&gt;IIR</title>
<path fill="none" stroke="#000000" d="M729.9507,-221.9737C738.5139,-219.9744 747.3054,-217.9257 755.5963,-216 824.9068,-199.9014 844.6389,-204.0795 911.5963,-180 913.4703,-179.3261 915.3732,-178.5791 917.2754,-177.7837"/>
<polygon fill="#000000" stroke="#000000" points="918.993,-180.8474 926.6428,-173.5172 916.0915,-174.477 918.993,-180.8474"/>
</g>
<!-- Chebyshev -->
<g id="node15" class="node">
<title>Chebyshev</title>
<ellipse fill="none" stroke="#000000" cx="826.5963" cy="-234" rx="61.99" ry="18"/>
<text text-anchor="middle" x="826.5963" y="-230.3" font-family="Times,serif" font-size="14.00" fill="#000000">Chebyshev</text>
</g>
<!-- Chebyshev&#45;&gt;IIR -->
<g id="edge14" class="edge">
<title>Chebyshev&#45;&gt;IIR</title>
<path fill="none" stroke="#000000" d="M854.0531,-217.6621C873.3151,-206.2004 899.0233,-190.903 918.6141,-179.2456"/>
<polygon fill="#000000" stroke="#000000" points="920.6078,-182.1321 927.4118,-174.0106 917.0283,-176.1165 920.6078,-182.1321"/>
</g>
<!-- Bessel -->
<g id="node16" class="node">
<title>Bessel</title>
<ellipse fill="none" stroke="#000000" cx="947.5963" cy="-234" rx="40.8928" ry="18"/>
<text text-anchor="middle" x="947.5963" y="-230.3" font-family="Times,serif" font-size="14.00" fill="#000000">Bessel</text>
</g>
<!-- Bessel&#45;&gt;IIR -->
<g id="edge15" class="edge">
<title>Bessel&#45;&gt;IIR</title>
<path fill="none" stroke="#000000" d="M947.5963,-215.8314C947.5963,-208.131 947.5963,-198.9743 947.5963,-190.4166"/>
<polygon fill="#000000" stroke="#000000" points="951.0964,-190.4132 947.5963,-180.4133 944.0964,-190.4133 951.0964,-190.4132"/>
</g>
<!-- Butterwoth -->
<g id="node17" class="node">
<title>Butterwoth</title>
<ellipse fill="none" stroke="#000000" cx="1070.5963" cy="-234" rx="63.8893" ry="18"/>
<text text-anchor="middle" x="1070.5963" y="-230.3" font-family="Times,serif" font-size="14.00" fill="#000000">Butterwoth</text>
</g>
<!-- Butterwoth&#45;&gt;IIR -->
<g id="edge16" class="edge">
<title>Butterwoth&#45;&gt;IIR</title>
<path fill="none" stroke="#000000" d="M1042.6857,-217.6621C1023.0167,-206.1485 996.7356,-190.7644 976.7876,-179.0876"/>
<polygon fill="#000000" stroke="#000000" points="978.5128,-176.0419 968.1145,-174.0106 974.9765,-182.083 978.5128,-176.0419"/>
</g>
<!-- Comb -->
<g id="node18" class="node">
<title>Comb</title>
<ellipse fill="none" stroke="#000000" cx="1189.5963" cy="-234" rx="37.8943" ry="18"/>
<text text-anchor="middle" x="1189.5963" y="-230.3" font-family="Times,serif" font-size="14.00" fill="#000000">Comb</text>
</g>
<!-- Comb&#45;&gt;IIR -->
<g id="edge17" class="edge">
<title>Comb&#45;&gt;IIR</title>
<path fill="none" stroke="#000000" d="M1161.1236,-222.0851C1155.3765,-219.8999 1149.3363,-217.7577 1143.5963,-216 1073.9018,-194.6583 1052.2521,-204.4779 983.5963,-180 981.7205,-179.3312 979.8161,-178.5882 977.9128,-177.7959"/>
<polygon fill="#000000" stroke="#000000" points="979.0946,-174.4885 968.5425,-173.5375 976.1984,-180.8613 979.0946,-174.4885"/>
</g>
<!-- Notch -->
<g id="node19" class="node">
<title>Notch</title>
<ellipse fill="none" stroke="#000000" cx="1283.5963" cy="-234" rx="38.1938" ry="18"/>
<text text-anchor="middle" x="1283.5963" y="-230.3" font-family="Times,serif" font-size="14.00" fill="#000000">Notch</text>
</g>
<!-- Notch&#45;&gt;IIR -->
<g id="edge18" class="edge">
<title>Notch&#45;&gt;IIR</title>
<path fill="none" stroke="#000000" d="M1255.0967,-221.9162C1249.0684,-219.6923 1242.6863,-217.578 1236.5963,-216 1126.6504,-187.5106 1092.0165,-213.835 983.5963,-180 981.6952,-179.4067 979.7713,-178.7225 977.8531,-177.9748"/>
<polygon fill="#000000" stroke="#000000" points="979.0056,-174.6582 968.4427,-173.8362 976.1875,-181.0659 979.0056,-174.6582"/>
</g>
<!-- Median -->
<g id="node20" class="node">
<title>Median</title>
<ellipse fill="none" stroke="#000000" cx="1110.5963" cy="-162" rx="45.4919" ry="18"/>
<text text-anchor="middle" x="1110.5963" y="-158.3" font-family="Times,serif" font-size="14.00" fill="#000000">Median</text>
</g>
<!-- Median&#45;&gt;SISO -->
<g id="edge19" class="edge">
<title>Median&#45;&gt;SISO</title>
<path fill="none" stroke="#000000" d="M1079.9373,-148.4574C1052.5123,-136.3433 1012.2993,-118.5804 983.4054,-105.8175"/>
<polygon fill="#000000" stroke="#000000" points="984.637,-102.5353 974.0754,-101.6963 981.8086,-108.9385 984.637,-102.5353"/>
</g>
<!-- PLL -->
<g id="node21" class="node">
<title>PLL</title>
<ellipse fill="none" stroke="#000000" cx="1202.5963" cy="-162" rx="28.6953" ry="18"/>
<text text-anchor="middle" x="1202.5963" y="-158.3" font-family="Times,serif" font-size="14.00" fill="#000000">PLL</text>
</g>
<!-- PLL&#45;&gt;SISO -->
<g id="edge20" class="edge">
<title>PLL&#45;&gt;SISO</title>
<path fill="none" stroke="#000000" d="M1180.4039,-150.5857C1175.2924,-148.2113 1169.8208,-145.8666 1164.5963,-144 1105.4104,-122.8548 1034.301,-106.8583 990.0173,-97.9548"/>
<polygon fill="#000000" stroke="#000000" points="990.6652,-94.5152 980.1755,-96.0042 989.3042,-101.3816 990.6652,-94.5152"/>
</g>
<!-- Saturation -->
<g id="node22" class="node">
<title>Saturation</title>
<ellipse fill="none" stroke="#000000" cx="1434.5963" cy="-162" rx="59.5901" ry="18"/>
<text text-anchor="middle" x="1434.5963" y="-158.3" font-family="Times,serif" font-size="14.00" fill="#000000">Saturation</text>
</g>
<!-- Saturation&#45;&gt;SISO -->
<g id="edge21" class="edge">
<title>Saturation&#45;&gt;SISO</title>
<path fill="none" stroke="#000000" d="M1380.6181,-154.0196C1283.1872,-139.6151 1079.8135,-109.5475 990.8382,-96.3931"/>
<polygon fill="#000000" stroke="#000000" points="991.2257,-92.9124 980.8213,-94.9121 990.2019,-99.8371 991.2257,-92.9124"/>
</g>
<!-- SimulatedSystem -->
<g id="node23" class="node">
<title>SimulatedSystem</title>
<ellipse fill="none" stroke="#000000" cx="2035.5963" cy="-162" rx="92.8835" ry="18"/>
<text text-anchor="middle" x="2035.5963" y="-158.3" font-family="Times,serif" font-size="14.00" fill="#000000">SimulatedSystem</text>
</g>
<!-- SimulatedSystem&#45;&gt;SISO -->
<g id="edge22" class="edge">
<title>SimulatedSystem&#45;&gt;SISO</title>
<path fill="none" stroke="#000000" d="M1947.4823,-156.1689C1726.7031,-141.5585 1155.8321,-103.7803 992.098,-92.945"/>
<polygon fill="#000000" stroke="#000000" points="992.1193,-89.4388 981.91,-92.2708 991.657,-96.4235 992.1193,-89.4388"/>
</g>
<!-- FirstOrder -->
<g id="node24" class="node">
<title>FirstOrder</title>
<ellipse fill="none" stroke="#000000" cx="1734.5963" cy="-234" rx="60.3893" ry="18"/>
<text text-anchor="middle" x="1734.5963" y="-230.3" font-family="Times,serif" font-size="14.00" fill="#000000">FirstOrder</text>
</g>
<!-- FirstOrder&#45;&gt;SimulatedSystem -->
<g id="edge23" class="edge">
<title>FirstOrder&#45;&gt;SimulatedSystem</title>
<path fill="none" stroke="#000000" d="M1780.1214,-222.1385C1788.2636,-220.0613 1796.6751,-217.944 1804.5963,-216 1858.443,-202.7848 1919.5372,-188.5355 1965.3658,-177.9942"/>
<polygon fill="#000000" stroke="#000000" points="1966.2359,-181.3856 1975.1985,-175.7356 1964.6687,-174.5633 1966.2359,-181.3856"/>
</g>
<!-- SecondOrder -->
<g id="node25" class="node">
<title>SecondOrder</title>
<ellipse fill="none" stroke="#000000" cx="1884.5963" cy="-234" rx="71.4873" ry="18"/>
<text text-anchor="middle" x="1884.5963" y="-230.3" font-family="Times,serif" font-size="14.00" fill="#000000">SecondOrder</text>
</g>
<!-- SecondOrder&#45;&gt;SimulatedSystem -->
<g id="edge24" class="edge">
<title>SecondOrder&#45;&gt;SimulatedSystem</title>
<path fill="none" stroke="#000000" d="M1918.1081,-218.0209C1939.7387,-207.7069 1968.1114,-194.1782 1991.5557,-182.9995"/>
<polygon fill="#000000" stroke="#000000" points="1993.084,-186.1483 2000.604,-178.6851 1990.0712,-179.8299 1993.084,-186.1483"/>
</g>
<!-- Polynomial -->
<g id="node26" class="node">
<title>Polynomial</title>
<ellipse fill="none" stroke="#000000" cx="2035.5963" cy="-234" rx="61.99" ry="18"/>
<text text-anchor="middle" x="2035.5963" y="-230.3" font-family="Times,serif" font-size="14.00" fill="#000000">Polynomial</text>
</g>
<!-- Polynomial&#45;&gt;SimulatedSystem -->
<g id="edge25" class="edge">
<title>Polynomial&#45;&gt;SimulatedSystem</title>
<path fill="none" stroke="#000000" d="M2035.5963,-215.8314C2035.5963,-208.131 2035.5963,-198.9743 2035.5963,-190.4166"/>
<polygon fill="#000000" stroke="#000000" points="2039.0964,-190.4132 2035.5963,-180.4133 2032.0964,-190.4133 2039.0964,-190.4132"/>
</g>
<!-- Sinusoid -->
<g id="node27" class="node">
<title>Sinusoid</title>
<ellipse fill="none" stroke="#000000" cx="2165.5963" cy="-234" rx="50.8918" ry="18"/>
<text text-anchor="middle" x="2165.5963" y="-230.3" font-family="Times,serif" font-size="14.00" fill="#000000">Sinusoid</text>
</g>
<!-- Sinusoid&#45;&gt;SimulatedSystem -->
<g id="edge26" class="edge">
<title>Sinusoid&#45;&gt;SimulatedSystem</title>
<path fill="none" stroke="#000000" d="M2138.0267,-218.7307C2119.8001,-208.636 2095.6171,-195.2423 2075.3257,-184.004"/>
<polygon fill="#000000" stroke="#000000" points="2076.7556,-180.795 2066.3119,-179.0117 2073.364,-186.9185 2076.7556,-180.795"/>
</g>
<!-- Logarithmic -->
<g id="node28" class="node">
<title>Logarithmic</title>
<ellipse fill="none" stroke="#000000" cx="2301.5963" cy="-234" rx="66.8882" ry="18"/>
<text text-anchor="middle" x="2301.5963" y="-230.3" font-family="Times,serif" font-size="14.00" fill="#000000">Logarithmic</text>
</g>
<!-- Logarithmic&#45;&gt;SimulatedSystem -->
<g id="edge27" class="edge">
<title>Logarithmic&#45;&gt;SimulatedSystem</title>
<path fill="none" stroke="#000000" d="M2254.3474,-221.2108C2211.2794,-209.5533 2147.2984,-192.2351 2099.6432,-179.336"/>
<polygon fill="#000000" stroke="#000000" points="2100.3025,-175.8886 2089.7353,-176.6542 2098.4735,-182.6454 2100.3025,-175.8886"/>
</g>
<!-- SmoothSaturation -->
<g id="node29" class="node">
<title>SmoothSaturation</title>
<ellipse fill="none" stroke="#000000" cx="1560.5963" cy="-234" rx="95.5831" ry="18"/>
<text text-anchor="middle" x="1560.5963" y="-230.3" font-family="Times,serif" font-size="14.00" fill="#000000">SmoothSaturation</text>
</g>
<!-- SmoothSaturation&#45;&gt;Saturation -->
<g id="edge28" class="edge">
<title>SmoothSaturation&#45;&gt;Saturation</title>
<path fill="none" stroke="#000000" d="M1530.4162,-216.7542C1512.7724,-206.6721 1490.3638,-193.8672 1471.6539,-183.1758"/>
<polygon fill="#000000" stroke="#000000" points="1473.2222,-180.0409 1462.8033,-178.1183 1469.7492,-186.1186 1473.2222,-180.0409"/>
</g>
<!-- SmoothSaturation&#45;&gt;SimulatedSystem -->
<g id="edge29" class="edge">
<title>SmoothSaturation&#45;&gt;SimulatedSystem</title>
<path fill="none" stroke="#000000" d="M1630.8742,-221.704C1642.4661,-219.7472 1654.3624,-217.7824 1665.5963,-216 1762.653,-200.6008 1874.3024,-184.5314 1949.3487,-173.9691"/>
<polygon fill="#000000" stroke="#000000" points="1950.2742,-177.3735 1959.6898,-172.5159 1949.3,-170.4416 1950.2742,-177.3735"/>
</g>
<!-- Hysteresis -->
<g id="node30" class="node">
<title>Hysteresis</title>
<ellipse fill="none" stroke="#000000" cx="2446.5963" cy="-234" rx="60.3893" ry="18"/>
<text text-anchor="middle" x="2446.5963" y="-230.3" font-family="Times,serif" font-size="14.00" fill="#000000">Hysteresis</text>
</g>
<!-- Hysteresis&#45;&gt;SimulatedSystem -->
<g id="edge30" class="edge">
<title>Hysteresis&#45;&gt;SimulatedSystem</title>
<path fill="none" stroke="#000000" d="M2402.2076,-221.7328C2394.055,-219.676 2385.5946,-217.6705 2377.5963,-216 2291.6494,-198.0498 2192.4414,-183.0036 2123.0853,-173.3912"/>
<polygon fill="#000000" stroke="#000000" points="2123.4582,-169.9095 2113.0742,-172.0127 2122.5033,-176.8441 2123.4582,-169.9095"/>
</g>
<!-- Pendulum -->
<g id="node31" class="node">
<title>Pendulum</title>
<ellipse fill="none" stroke="#000000" cx="2582.5963" cy="-234" rx="57.6901" ry="18"/>
<text text-anchor="middle" x="2582.5963" y="-230.3" font-family="Times,serif" font-size="14.00" fill="#000000">Pendulum</text>
</g>
<!-- Pendulum&#45;&gt;SimulatedSystem -->
<g id="edge31" class="edge">
<title>Pendulum&#45;&gt;SimulatedSystem</title>
<path fill="none" stroke="#000000" d="M2540.2863,-221.6021C2532.1427,-219.5093 2523.6433,-217.5246 2515.5963,-216 2384.692,-191.1984 2231.3918,-176.3825 2133.9137,-168.7104"/>
<polygon fill="#000000" stroke="#000000" points="2134.019,-165.2081 2123.7779,-167.9226 2133.4765,-172.1871 2134.019,-165.2081"/>
</g>
<!-- CrossCorrelation -->
<g id="node32" class="node">
<title>CrossCorrelation</title>
<ellipse fill="none" stroke="#000000" cx="2748.5963" cy="-234" rx="89.8845" ry="18"/>
<text text-anchor="middle" x="2748.5963" y="-230.3" font-family="Times,serif" font-size="14.00" fill="#000000">CrossCorrelation</text>
</g>
<!-- DFT -->
<g id="node33" class="node">
<title>DFT</title>
<ellipse fill="none" stroke="#000000" cx="2886.5963" cy="-234" rx="30.5947" ry="18"/>
<text text-anchor="middle" x="2886.5963" y="-230.3" font-family="Times,serif" font-size="14.00" fill="#000000">DFT</text>
</g>
<!-- FFT -->
<g id="node34" class="node">
<title>FFT</title>
<ellipse fill="none" stroke="#000000" cx="2964.5963" cy="-234" rx="29.4969" ry="18"/>
<text text-anchor="middle" x="2964.5963" y="-230.3" font-family="Times,serif" font-size="14.00" fill="#000000">FFT</text>
</g>
<!-- DCT -->
<g id="node35" class="node">
<title>DCT</title>
<ellipse fill="none" stroke="#000000" cx="3042.5963" cy="-234" rx="30.5947" ry="18"/>
<text text-anchor="middle" x="3042.5963" y="-230.3" font-family="Times,serif" font-size="14.00" fill="#000000">DCT</text>
</g>
<!-- Wavelet -->
<g id="node36" class="node">
<title>Wavelet</title>
<ellipse fill="none" stroke="#000000" cx="3138.5963" cy="-234" rx="47.3916" ry="18"/>
<text text-anchor="middle" x="3138.5963" y="-230.3" font-family="Times,serif" font-size="14.00" fill="#000000">Wavelet</text>
</g>
<!-- Source -->
<g id="node37" class="node">
<title>Source</title>
<ellipse fill="none" stroke="#000000" cx="3197.5963" cy="-90" rx="42.7926" ry="18"/>
<text text-anchor="middle" x="3197.5963" y="-86.3" font-family="Times,serif" font-size="14.00" fill="#000000">Source</text>
</g>
<!-- std::basic_istream -->
<g id="node38" class="node">
<title>std::basic_istream</title>
<ellipse fill="none" stroke="#000000" cx="3197.5963" cy="-18" rx="94.7833" ry="18"/>
<text text-anchor="middle" x="3197.5963" y="-14.3" font-family="Times,serif" font-size="14.00" fill="#000000">std::basic_istream</text>
</g>
<!-- Source&#45;&gt;std::basic_istream -->
<g id="edge32" class="edge">
<title>Source&#45;&gt;std::basic_istream</title>
<path fill="none" stroke="#000000" d="M3197.5963,-71.8314C3197.5963,-64.131 3197.5963,-54.9743 3197.5963,-46.4166"/>
<polygon fill="#000000" stroke="#000000" points="3201.0964,-46.4132 3197.5963,-36.4133 3194.0964,-46.4133 3201.0964,-46.4132"/>
</g>
<!-- NoiseSource -->
<g id="node39" class="node">
<title>NoiseSource</title>
<ellipse fill="none" stroke="#000000" cx="2874.5963" cy="-162" rx="69.5877" ry="18"/>
<text text-anchor="middle" x="2874.5963" y="-158.3" font-family="Times,serif" font-size="14.00" fill="#000000">NoiseSource</text>
</g>
<!-- NoiseSource&#45;&gt;Source -->
<g id="edge33" class="edge">
<title>NoiseSource&#45;&gt;Source</title>
<path fill="none" stroke="#000000" d="M2926.8542,-150.0449C2935.7743,-148.0181 2944.9496,-145.9419 2953.5963,-144 3021.5718,-128.7342 3100.2734,-111.3732 3149.4999,-100.5517"/>
<polygon fill="#000000" stroke="#000000" points="3150.5267,-103.9097 3159.5425,-98.3449 3149.0243,-97.0728 3150.5267,-103.9097"/>
</g>
<!-- Impulse -->
<g id="node40" class="node">
<title>Impulse</title>
<ellipse fill="none" stroke="#000000" cx="3010.5963" cy="-162" rx="48.1917" ry="18"/>
<text text-anchor="middle" x="3010.5963" y="-158.3" font-family="Times,serif" font-size="14.00" fill="#000000">Impulse</text>
</g>
<!-- Impulse&#45;&gt;Source -->
<g id="edge34" class="edge">
<title>Impulse&#45;&gt;Source</title>
<path fill="none" stroke="#000000" d="M3044.4606,-148.9613C3075.8812,-136.8636 3122.7225,-118.8284 3156.3198,-105.8926"/>
<polygon fill="#000000" stroke="#000000" points="3157.7799,-109.0809 3165.8545,-102.2215 3155.2647,-102.5484 3157.7799,-109.0809"/>
</g>
<!-- Step -->
<g id="node41" class="node">
<title>Step</title>
<ellipse fill="none" stroke="#000000" cx="3109.5963" cy="-162" rx="32.4942" ry="18"/>
<text text-anchor="middle" x="3109.5963" y="-158.3" font-family="Times,serif" font-size="14.00" fill="#000000">Step</text>
</g>
<!-- Step&#45;&gt;Source -->
<g id="edge35" class="edge">
<title>Step&#45;&gt;Source</title>
<path fill="none" stroke="#000000" d="M3127.83,-147.0816C3140.0343,-137.0962 3156.322,-123.7699 3170.0904,-112.5048"/>
<polygon fill="#000000" stroke="#000000" points="3172.3327,-115.1925 3177.856,-106.1512 3167.9,-109.7748 3172.3327,-115.1925"/>
</g>
<!-- Ramp -->
<g id="node42" class="node">
<title>Ramp</title>
<ellipse fill="none" stroke="#000000" cx="3197.5963" cy="-162" rx="37.8943" ry="18"/>
<text text-anchor="middle" x="3197.5963" y="-158.3" font-family="Times,serif" font-size="14.00" fill="#000000">Ramp</text>
</g>
<!-- Ramp&#45;&gt;Source -->
<g id="edge36" class="edge">
<title>Ramp&#45;&gt;Source</title>
<path fill="none" stroke="#000000" d="M3197.5963,-143.8314C3197.5963,-136.131 3197.5963,-126.9743 3197.5963,-118.4166"/>
<polygon fill="#000000" stroke="#000000" points="3201.0964,-118.4132 3197.5963,-108.4133 3194.0964,-118.4133 3201.0964,-118.4132"/>
</g>
<!-- Triangle -->
<g id="node43" class="node">
<title>Triangle</title>
<ellipse fill="none" stroke="#000000" cx="3302.5963" cy="-162" rx="49.2915" ry="18"/>
<text text-anchor="middle" x="3302.5963" y="-158.3" font-family="Times,serif" font-size="14.00" fill="#000000">Triangle</text>
</g>
<!-- Triangle&#45;&gt;Source -->
<g id="edge37" class="edge">
<title>Triangle&#45;&gt;Source</title>
<path fill="none" stroke="#000000" d="M3279.2934,-146.0209C3264.408,-135.8137 3244.931,-122.4581 3228.7282,-111.3476"/>
<polygon fill="#000000" stroke="#000000" points="3230.3401,-108.2091 3220.1134,-105.4403 3226.3813,-113.9822 3230.3401,-108.2091"/>
</g>
<!-- Sine -->
<g id="node44" class="node">
<title>Sine</title>
<ellipse fill="none" stroke="#000000" cx="3401.5963" cy="-162" rx="31.3957" ry="18"/>
<text text-anchor="middle" x="3401.5963" y="-158.3" font-family="Times,serif" font-size="14.00" fill="#000000">Sine</text>
</g>
<!-- Sine&#45;&gt;Source -->
<g id="edge38" class="edge">
<title>Sine&#45;&gt;Source</title>
<path fill="none" stroke="#000000" d="M3377.0357,-150.7708C3371.6576,-148.4374 3365.9663,-146.0631 3360.5963,-144 3321.1283,-128.837 3275.3619,-113.9006 3242.39,-103.5939"/>
<polygon fill="#000000" stroke="#000000" points="3243.1774,-100.1735 3232.5892,-100.5487 3241.1004,-106.8583 3243.1774,-100.1735"/>
</g>
<!-- Digital -->
<g id="node45" class="node">
<title>Digital</title>
<ellipse fill="none" stroke="#000000" cx="3492.5963" cy="-162" rx="42.4939" ry="18"/>
<text text-anchor="middle" x="3492.5963" y="-158.3" font-family="Times,serif" font-size="14.00" fill="#000000">Digital</text>
</g>
<!-- Digital&#45;&gt;Source -->
<g id="edge39" class="edge">
<title>Digital&#45;&gt;Source</title>
<path fill="none" stroke="#000000" d="M3460.6852,-150.0696C3454.4015,-147.9101 3447.8253,-145.7814 3441.5963,-144 3375.0583,-124.9713 3296.708,-108.6908 3247.0983,-99.1215"/>
<polygon fill="#000000" stroke="#000000" points="3247.747,-95.6822 3237.2674,-97.2405 3246.4315,-102.5575 3247.747,-95.6822"/>
</g>
<!-- UnipolarNRZ -->
<g id="node46" class="node">
<title>UnipolarNRZ</title>
<ellipse fill="none" stroke="#000000" cx="3276.5963" cy="-234" rx="72.2875" ry="18"/>
<text text-anchor="middle" x="3276.5963" y="-230.3" font-family="Times,serif" font-size="14.00" fill="#000000">UnipolarNRZ</text>
</g>
<!-- UnipolarNRZ&#45;&gt;Digital -->
<g id="edge40" class="edge">
<title>UnipolarNRZ&#45;&gt;Digital</title>
<path fill="none" stroke="#000000" d="M3321.1581,-219.7227C3354.4138,-208.9934 3400.9324,-193.828 3441.5963,-180 3444.4812,-179.019 3447.4543,-177.9974 3450.4469,-176.9613"/>
<polygon fill="#000000" stroke="#000000" points="3451.6969,-180.2322 3459.9869,-173.6347 3449.392,-173.6225 3451.6969,-180.2322"/>
</g>
<!-- PolarNRZ -->
<g id="node47" class="node">
<title>PolarNRZ</title>
<ellipse fill="none" stroke="#000000" cx="3422.5963" cy="-234" rx="55.7903" ry="18"/>
<text text-anchor="middle" x="3422.5963" y="-230.3" font-family="Times,serif" font-size="14.00" fill="#000000">PolarNRZ</text>
</g>
<!-- PolarNRZ&#45;&gt;Digital -->
<g id="edge41" class="edge">
<title>PolarNRZ&#45;&gt;Digital</title>
<path fill="none" stroke="#000000" d="M3439.5414,-216.5708C3448.4405,-207.4174 3459.4842,-196.0582 3469.1878,-186.0773"/>
<polygon fill="#000000" stroke="#000000" points="3471.828,-188.3827 3476.2893,-178.7729 3466.809,-183.5031 3471.828,-188.3827"/>
</g>
<!-- Manchester -->
<g id="node48" class="node">
<title>Manchester</title>
<ellipse fill="none" stroke="#000000" cx="3562.5963" cy="-234" rx="65.7887" ry="18"/>
<text text-anchor="middle" x="3562.5963" y="-230.3" font-family="Times,serif" font-size="14.00" fill="#000000">Manchester</text>
</g>
<!-- Manchester&#45;&gt;Digital -->
<g id="edge42" class="edge">
<title>Manchester&#45;&gt;Digital</title>
<path fill="none" stroke="#000000" d="M3545.6513,-216.5708C3536.7521,-207.4174 3525.7084,-196.0582 3516.0048,-186.0773"/>
<polygon fill="#000000" stroke="#000000" points="3518.3836,-183.5031 3508.9033,-178.7729 3513.3646,-188.3827 3518.3836,-183.5031"/>
</g>
<!-- Bipolar -->
<g id="node49" class="node">
<title>Bipolar</title>
<ellipse fill="none" stroke="#000000" cx="3690.5963" cy="-234" rx="44.393" ry="18"/>
<text text-anchor="middle" x="3690.5963" y="-230.3" font-family="Times,serif" font-size="14.00" fill="#000000">Bipolar</text>
</g>
<!-- Bipolar&#45;&gt;Digital -->
<g id="edge43" class="edge">
<title>Bipolar&#45;&gt;Digital</title>
<path fill="none" stroke="#000000" d="M3657.4556,-221.9488C3623.6009,-209.638 3570.9413,-190.4891 3534.2791,-177.1574"/>
<polygon fill="#000000" stroke="#000000" points="3535.4527,-173.86 3524.8586,-173.7317 3533.0604,-180.4385 3535.4527,-173.86"/>
</g>
</g>
</svg>
