<?xml version="1.0" encoding="UTF-8" standalone="no"?>
<!DOCTYPE svg PUBLIC "-//W3C//DTD SVG 1.1//EN"
 "http://www.w3.org/Graphics/SVG/1.1/DTD/svg11.dtd">
<!-- Generated by graphviz version 2.40.1 (20161225.0304)
 -->
<!-- Title: %3 Pages: 1 -->
<svg width="2813pt" height="260pt"
 viewBox="0.00 0.00 2812.79 260.00" xmlns="http://www.w3.org/2000/svg" xmlns:xlink="http://www.w3.org/1999/xlink">
<g id="graph0" class="graph" transform="scale(1 1) rotate(0) translate(4 256)">
<title>%3</title>
<polygon fill="#ffffff" stroke="transparent" points="-4,4 -4,-256 2808.7924,-256 2808.7924,4 -4,4"/>
<!-- Cascade -->
<g id="node1" class="node">
<title>Cascade</title>
<ellipse fill="none" stroke="#000000" cx="118.5963" cy="-90" rx="49.2915" ry="18"/>
<text text-anchor="middle" x="118.5963" y="-86.3" font-family="Times,serif" font-size="14.00" fill="#000000">Cascade</text>
</g>
<!-- SISO -->
<g id="node2" class="node">
<title>SISO</title>
<ellipse fill="none" stroke="#000000" cx="899.5963" cy="-18" rx="34.394" ry="18"/>
<text text-anchor="middle" x="899.5963" y="-14.3" font-family="Times,serif" font-size="14.00" fill="#000000">SISO</text>
</g>
<!-- Cascade&#45;&gt;SISO -->
<g id="edge1" class="edge">
<title>Cascade&#45;&gt;SISO</title>
<path fill="none" stroke="#000000" d="M154.7906,-77.5814C162.2569,-75.4102 170.1231,-73.4015 177.5963,-72 308.6891,-47.4152 718.6078,-26.4814 854.9752,-20.0406"/>
<polygon fill="#000000" stroke="#000000" points="855.2416,-23.532 865.0664,-19.5669 854.9133,-16.5397 855.2416,-23.532"/>
</g>
<!-- Parallel -->
<g id="node3" class="node">
<title>Parallel</title>
<ellipse fill="none" stroke="#000000" cx="232.5963" cy="-90" rx="46.2923" ry="18"/>
<text text-anchor="middle" x="232.5963" y="-86.3" font-family="Times,serif" font-size="14.00" fill="#000000">Parallel</text>
</g>
<!-- Parallel&#45;&gt;SISO -->
<g id="edge2" class="edge">
<title>Parallel&#45;&gt;SISO</title>
<path fill="none" stroke="#000000" d="M266.303,-77.6295C273.2657,-75.4545 280.6082,-73.4322 287.5963,-72 396.3621,-49.7089 732.9529,-27.9616 854.9001,-20.6151"/>
<polygon fill="#000000" stroke="#000000" points="855.2321,-24.1016 865.0049,-20.0098 854.8135,-17.1141 855.2321,-24.1016"/>
</g>
<!-- Feedback -->
<g id="node4" class="node">
<title>Feedback</title>
<ellipse fill="none" stroke="#000000" cx="350.5963" cy="-90" rx="53.8905" ry="18"/>
<text text-anchor="middle" x="350.5963" y="-86.3" font-family="Times,serif" font-size="14.00" fill="#000000">Feedback</text>
</g>
<!-- Feedback&#45;&gt;SISO -->
<g id="edge3" class="edge">
<title>Feedback&#45;&gt;SISO</title>
<path fill="none" stroke="#000000" d="M390.0059,-77.6461C397.769,-75.5236 405.8954,-73.5168 413.5963,-72 574.3136,-40.3438 768.8525,-25.7304 854.9267,-20.4524"/>
<polygon fill="#000000" stroke="#000000" points="855.3484,-23.9335 865.1206,-19.8402 854.9287,-16.9461 855.3484,-23.9335"/>
</g>
<!-- Integrator -->
<g id="node5" class="node">
<title>Integrator</title>
<ellipse fill="none" stroke="#000000" cx="480.5963" cy="-90" rx="58.4896" ry="18"/>
<text text-anchor="middle" x="480.5963" y="-86.3" font-family="Times,serif" font-size="14.00" fill="#000000">Integrator</text>
</g>
<!-- Integrator&#45;&gt;SISO -->
<g id="edge4" class="edge">
<title>Integrator&#45;&gt;SISO</title>
<path fill="none" stroke="#000000" d="M523.9639,-77.7863C532.1118,-75.7007 540.5867,-73.6713 548.5963,-72 658.306,-49.1078 789.1838,-31.4993 855.8544,-23.2129"/>
<polygon fill="#000000" stroke="#000000" points="856.4936,-26.6607 865.9903,-21.9636 855.6372,-19.7132 856.4936,-26.6607"/>
</g>
<!-- Derivator -->
<g id="node6" class="node">
<title>Derivator</title>
<ellipse fill="none" stroke="#000000" cx="612.5963" cy="-90" rx="55.4913" ry="18"/>
<text text-anchor="middle" x="612.5963" y="-86.3" font-family="Times,serif" font-size="14.00" fill="#000000">Derivator</text>
</g>
<!-- Derivator&#45;&gt;SISO -->
<g id="edge5" class="edge">
<title>Derivator&#45;&gt;SISO</title>
<path fill="none" stroke="#000000" d="M654.5028,-78.1861C662.1735,-76.0832 670.1168,-73.9448 677.5963,-72 740.2784,-55.7018 813.3131,-38.2263 857.9945,-27.7057"/>
<polygon fill="#000000" stroke="#000000" points="858.9673,-31.0725 867.9014,-25.3776 857.3659,-24.2581 858.9673,-31.0725"/>
</g>
<!-- Mixer -->
<g id="node7" class="node">
<title>Mixer</title>
<ellipse fill="none" stroke="#000000" cx="724.5963" cy="-90" rx="38.1938" ry="18"/>
<text text-anchor="middle" x="724.5963" y="-86.3" font-family="Times,serif" font-size="14.00" fill="#000000">Mixer</text>
</g>
<!-- Mixer&#45;&gt;SISO -->
<g id="edge6" class="edge">
<title>Mixer&#45;&gt;SISO</title>
<path fill="none" stroke="#000000" d="M753.494,-78.1107C783.4067,-65.8037 830.2302,-46.5392 862.7768,-33.1486"/>
<polygon fill="#000000" stroke="#000000" points="864.4685,-36.2373 872.3846,-29.1957 861.805,-29.7638 864.4685,-36.2373"/>
</g>
<!-- Noise -->
<g id="node8" class="node">
<title>Noise</title>
<ellipse fill="none" stroke="#000000" cx="817.5963" cy="-90" rx="37.0935" ry="18"/>
<text text-anchor="middle" x="817.5963" y="-86.3" font-family="Times,serif" font-size="14.00" fill="#000000">Noise</text>
</g>
<!-- Noise&#45;&gt;SISO -->
<g id="edge7" class="edge">
<title>Noise&#45;&gt;SISO</title>
<path fill="none" stroke="#000000" d="M835.7948,-74.0209C847.0192,-64.1652 861.5868,-51.3742 873.9677,-40.5032"/>
<polygon fill="#000000" stroke="#000000" points="876.5257,-42.9148 881.7309,-33.6867 871.9071,-37.6547 876.5257,-42.9148"/>
</g>
<!-- AWGN -->
<g id="node9" class="node">
<title>AWGN</title>
<ellipse fill="none" stroke="#000000" cx="41.5963" cy="-162" rx="41.6928" ry="18"/>
<text text-anchor="middle" x="41.5963" y="-158.3" font-family="Times,serif" font-size="14.00" fill="#000000">AWGN</text>
</g>
<!-- AWGN&#45;&gt;Noise -->
<g id="edge8" class="edge">
<title>AWGN&#45;&gt;Noise</title>
<path fill="none" stroke="#000000" d="M71.8646,-149.508C78.2813,-147.3136 85.085,-145.3146 91.5963,-144 388.2556,-84.1039 475.7864,-171.9593 771.5963,-108 774.6008,-107.3504 777.6657,-106.5298 780.7152,-105.5989"/>
<polygon fill="#000000" stroke="#000000" points="781.977,-108.8665 790.3103,-102.3239 779.7157,-102.2418 781.977,-108.8665"/>
</g>
<!-- PinkNoise -->
<g id="node10" class="node">
<title>PinkNoise</title>
<ellipse fill="none" stroke="#000000" cx="158.5963" cy="-162" rx="57.6901" ry="18"/>
<text text-anchor="middle" x="158.5963" y="-158.3" font-family="Times,serif" font-size="14.00" fill="#000000">PinkNoise</text>
</g>
<!-- PinkNoise&#45;&gt;Noise -->
<g id="edge9" class="edge">
<title>PinkNoise&#45;&gt;Noise</title>
<path fill="none" stroke="#000000" d="M200.4936,-149.392C208.7508,-147.2917 217.3974,-145.3581 225.5963,-144 465.5208,-104.259 534.2332,-160.9328 771.5963,-108 774.5965,-107.331 777.6583,-106.4964 780.7057,-105.5558"/>
<polygon fill="#000000" stroke="#000000" points="781.9752,-108.8205 790.2969,-102.263 779.7023,-102.1998 781.9752,-108.8205"/>
</g>
<!-- BurstNoise -->
<g id="node11" class="node">
<title>BurstNoise</title>
<ellipse fill="none" stroke="#000000" cx="297.5963" cy="-162" rx="63.0888" ry="18"/>
<text text-anchor="middle" x="297.5963" y="-158.3" font-family="Times,serif" font-size="14.00" fill="#000000">BurstNoise</text>
</g>
<!-- BurstNoise&#45;&gt;Noise -->
<g id="edge10" class="edge">
<title>BurstNoise&#45;&gt;Noise</title>
<path fill="none" stroke="#000000" d="M343.0769,-149.4937C351.827,-147.411 360.9568,-145.4577 369.5963,-144 546.478,-114.1564 596.9856,-149.096 771.5963,-108 774.4136,-107.3369 777.2876,-106.5358 780.1544,-105.6446"/>
<polygon fill="#000000" stroke="#000000" points="781.4605,-108.8968 789.7804,-102.3371 779.1857,-102.2767 781.4605,-108.8968"/>
</g>
<!-- SaltAndPepperNoise -->
<g id="node12" class="node">
<title>SaltAndPepperNoise</title>
<ellipse fill="none" stroke="#000000" cx="485.5963" cy="-162" rx="106.6812" ry="18"/>
<text text-anchor="middle" x="485.5963" y="-158.3" font-family="Times,serif" font-size="14.00" fill="#000000">SaltAndPepperNoise</text>
</g>
<!-- SaltAndPepperNoise&#45;&gt;Noise -->
<g id="edge11" class="edge">
<title>SaltAndPepperNoise&#45;&gt;Noise</title>
<path fill="none" stroke="#000000" d="M561.3685,-149.3377C632.3286,-137.181 733.0479,-119.0765 771.5963,-108 774.3781,-107.2007 777.2259,-106.2993 780.0739,-105.3366"/>
<polygon fill="#000000" stroke="#000000" points="781.4381,-108.5655 789.6628,-101.8867 779.0683,-101.9788 781.4381,-108.5655"/>
</g>
<!-- IIR -->
<g id="node13" class="node">
<title>IIR</title>
<ellipse fill="none" stroke="#000000" cx="899.5963" cy="-90" rx="27" ry="18"/>
<text text-anchor="middle" x="899.5963" y="-86.3" font-family="Times,serif" font-size="14.00" fill="#000000">IIR</text>
</g>
<!-- IIR&#45;&gt;SISO -->
<g id="edge12" class="edge">
<title>IIR&#45;&gt;SISO</title>
<path fill="none" stroke="#000000" d="M899.5963,-71.8314C899.5963,-64.131 899.5963,-54.9743 899.5963,-46.4166"/>
<polygon fill="#000000" stroke="#000000" points="903.0964,-46.4132 899.5963,-36.4133 896.0964,-46.4133 903.0964,-46.4132"/>
</g>
<!-- FIR -->
<g id="node14" class="node">
<title>FIR</title>
<ellipse fill="none" stroke="#000000" cx="637.5963" cy="-162" rx="27.0966" ry="18"/>
<text text-anchor="middle" x="637.5963" y="-158.3" font-family="Times,serif" font-size="14.00" fill="#000000">FIR</text>
</g>
<!-- FIR&#45;&gt;IIR -->
<g id="edge13" class="edge">
<title>FIR&#45;&gt;IIR</title>
<path fill="none" stroke="#000000" d="M658.715,-150.5407C663.8076,-148.1121 669.3082,-145.7554 674.5963,-144 755.7522,-117.0608 782.588,-135.3799 863.5963,-108 865.483,-107.3623 867.3957,-106.6436 869.3054,-105.8696"/>
<polygon fill="#000000" stroke="#000000" points="871,-108.9456 878.6928,-101.6606 868.1361,-102.5582 871,-108.9456"/>
</g>
<!-- Gaussian -->
<g id="node15" class="node">
<title>Gaussian</title>
<ellipse fill="none" stroke="#000000" cx="637.5963" cy="-234" rx="53.0913" ry="18"/>
<text text-anchor="middle" x="637.5963" y="-230.3" font-family="Times,serif" font-size="14.00" fill="#000000">Gaussian</text>
</g>
<!-- Gaussian&#45;&gt;FIR -->
<g id="edge14" class="edge">
<title>Gaussian&#45;&gt;FIR</title>
<path fill="none" stroke="#000000" d="M637.5963,-215.8314C637.5963,-208.131 637.5963,-198.9743 637.5963,-190.4166"/>
<polygon fill="#000000" stroke="#000000" points="641.0964,-190.4132 637.5963,-180.4133 634.0964,-190.4133 641.0964,-190.4132"/>
</g>
<!-- Butterworth -->
<g id="node16" class="node">
<title>Butterworth</title>
<ellipse fill="none" stroke="#000000" cx="751.5963" cy="-162" rx="68.4888" ry="18"/>
<text text-anchor="middle" x="751.5963" y="-158.3" font-family="Times,serif" font-size="14.00" fill="#000000">Butterworth</text>
</g>
<!-- Butterworth&#45;&gt;IIR -->
<g id="edge15" class="edge">
<title>Butterworth&#45;&gt;IIR</title>
<path fill="none" stroke="#000000" d="M784.9824,-146.0577C807.2819,-135.3714 837.2443,-120.9399 863.5963,-108 865.3369,-107.1453 867.1231,-106.2644 868.9246,-105.373"/>
<polygon fill="#000000" stroke="#000000" points="870.5229,-108.4872 877.9194,-100.9015 867.4067,-102.219 870.5229,-108.4872"/>
</g>
<!-- Chebyshev -->
<g id="node17" class="node">
<title>Chebyshev</title>
<ellipse fill="none" stroke="#000000" cx="899.5963" cy="-162" rx="61.99" ry="18"/>
<text text-anchor="middle" x="899.5963" y="-158.3" font-family="Times,serif" font-size="14.00" fill="#000000">Chebyshev</text>
</g>
<!-- Chebyshev&#45;&gt;IIR -->
<g id="edge16" class="edge">
<title>Chebyshev&#45;&gt;IIR</title>
<path fill="none" stroke="#000000" d="M899.5963,-143.8314C899.5963,-136.131 899.5963,-126.9743 899.5963,-118.4166"/>
<polygon fill="#000000" stroke="#000000" points="903.0964,-118.4132 899.5963,-108.4133 896.0964,-118.4133 903.0964,-118.4132"/>
</g>
<!-- Bessel -->
<g id="node18" class="node">
<title>Bessel</title>
<ellipse fill="none" stroke="#000000" cx="1020.5963" cy="-162" rx="40.8928" ry="18"/>
<text text-anchor="middle" x="1020.5963" y="-158.3" font-family="Times,serif" font-size="14.00" fill="#000000">Bessel</text>
</g>
<!-- Bessel&#45;&gt;IIR -->
<g id="edge17" class="edge">
<title>Bessel&#45;&gt;IIR</title>
<path fill="none" stroke="#000000" d="M996.1102,-147.4297C976.6202,-135.8324 949.2904,-119.57 928.6863,-107.3097"/>
<polygon fill="#000000" stroke="#000000" points="930.4117,-104.2637 920.0282,-102.1578 926.8321,-110.2793 930.4117,-104.2637"/>
</g>
<!-- Butterwoth -->
<g id="node19" class="node">
<title>Butterwoth</title>
<ellipse fill="none" stroke="#000000" cx="1143.5963" cy="-162" rx="63.8893" ry="18"/>
<text text-anchor="middle" x="1143.5963" y="-158.3" font-family="Times,serif" font-size="14.00" fill="#000000">Butterwoth</text>
</g>
<!-- Butterwoth&#45;&gt;IIR -->
<g id="edge18" class="edge">
<title>Butterwoth&#45;&gt;IIR</title>
<path fill="none" stroke="#000000" d="M1095.4663,-150.0699C1038.833,-135.9433 950.5734,-113.6174 935.5963,-108 933.7317,-107.3006 931.836,-106.5339 929.9393,-105.7234"/>
<polygon fill="#000000" stroke="#000000" points="931.134,-102.4203 920.5868,-101.4166 928.206,-108.7786 931.134,-102.4203"/>
</g>
<!-- Comb -->
<g id="node20" class="node">
<title>Comb</title>
<ellipse fill="none" stroke="#000000" cx="1262.5963" cy="-162" rx="37.8943" ry="18"/>
<text text-anchor="middle" x="1262.5963" y="-158.3" font-family="Times,serif" font-size="14.00" fill="#000000">Comb</text>
</g>
<!-- Comb&#45;&gt;IIR -->
<g id="edge19" class="edge">
<title>Comb&#45;&gt;IIR</title>
<path fill="none" stroke="#000000" d="M1234.7369,-149.84C1228.8345,-147.6215 1222.5786,-145.5288 1216.5963,-144 1094.6073,-112.8246 1056.0474,-144.6712 935.5963,-108 933.6911,-107.42 931.764,-106.746 929.8434,-106.0062"/>
<polygon fill="#000000" stroke="#000000" points="930.9912,-102.6882 920.4266,-101.8886 928.1867,-109.1018 930.9912,-102.6882"/>
</g>
<!-- Notch -->
<g id="node21" class="node">
<title>Notch</title>
<ellipse fill="none" stroke="#000000" cx="1356.5963" cy="-162" rx="38.1938" ry="18"/>
<text text-anchor="middle" x="1356.5963" y="-158.3" font-family="Times,serif" font-size="14.00" fill="#000000">Notch</text>
</g>
<!-- Notch&#45;&gt;IIR -->
<g id="edge20" class="edge">
<title>Notch&#45;&gt;IIR</title>
<path fill="none" stroke="#000000" d="M1328.4008,-149.7936C1322.2954,-147.5502 1315.8056,-145.4595 1309.5963,-144 1147.0358,-105.7911 1096.0925,-154.1174 935.5963,-108 933.4682,-107.3885 931.3153,-106.6526 929.1765,-105.8325"/>
<polygon fill="#000000" stroke="#000000" points="930.5735,-102.6234 920.009,-101.8221 927.768,-109.0366 930.5735,-102.6234"/>
</g>
<!-- Median -->
<g id="node22" class="node">
<title>Median</title>
<ellipse fill="none" stroke="#000000" cx="989.5963" cy="-90" rx="45.4919" ry="18"/>
<text text-anchor="middle" x="989.5963" y="-86.3" font-family="Times,serif" font-size="14.00" fill="#000000">Median</text>
</g>
<!-- Median&#45;&gt;SISO -->
<g id="edge21" class="edge">
<title>Median&#45;&gt;SISO</title>
<path fill="none" stroke="#000000" d="M969.1739,-73.6621C956.6328,-63.6292 940.418,-50.6573 926.7969,-39.7605"/>
<polygon fill="#000000" stroke="#000000" points="928.7022,-36.8026 918.7071,-33.2886 924.3293,-42.2687 928.7022,-36.8026"/>
</g>
<!-- PLL -->
<g id="node23" class="node">
<title>PLL</title>
<ellipse fill="none" stroke="#000000" cx="1081.5963" cy="-90" rx="28.6953" ry="18"/>
<text text-anchor="middle" x="1081.5963" y="-86.3" font-family="Times,serif" font-size="14.00" fill="#000000">PLL</text>
</g>
<!-- PLL&#45;&gt;SISO -->
<g id="edge22" class="edge">
<title>PLL&#45;&gt;SISO</title>
<path fill="none" stroke="#000000" d="M1058.8287,-78.8366C1053.8443,-76.4992 1048.5706,-74.1065 1043.5963,-72 1008.1429,-56.9866 966.9411,-41.7534 937.7156,-31.3115"/>
<polygon fill="#000000" stroke="#000000" points="938.8837,-28.0123 928.289,-27.9613 936.5395,-34.6081 938.8837,-28.0123"/>
</g>
<!-- Polynomial -->
<g id="node24" class="node">
<title>Polynomial</title>
<ellipse fill="none" stroke="#000000" cx="1189.5963" cy="-90" rx="61.99" ry="18"/>
<text text-anchor="middle" x="1189.5963" y="-86.3" font-family="Times,serif" font-size="14.00" fill="#000000">Polynomial</text>
</g>
<!-- Polynomial&#45;&gt;SISO -->
<g id="edge23" class="edge">
<title>Polynomial&#45;&gt;SISO</title>
<path fill="none" stroke="#000000" d="M1143.3009,-78.019C1135.396,-75.9951 1127.2633,-73.9266 1119.5963,-72 1057.317,-56.3498 984.9849,-38.6957 940.7597,-27.9607"/>
<polygon fill="#000000" stroke="#000000" points="941.4978,-24.5383 930.9546,-25.5822 939.8476,-31.341 941.4978,-24.5383"/>
</g>
<!-- Sinusoid -->
<g id="node25" class="node">
<title>Sinusoid</title>
<ellipse fill="none" stroke="#000000" cx="1319.5963" cy="-90" rx="50.8918" ry="18"/>
<text text-anchor="middle" x="1319.5963" y="-86.3" font-family="Times,serif" font-size="14.00" fill="#000000">Sinusoid</text>
</g>
<!-- Sinusoid&#45;&gt;SISO -->
<g id="edge24" class="edge">
<title>Sinusoid&#45;&gt;SISO</title>
<path fill="none" stroke="#000000" d="M1282.3655,-77.733C1275.1917,-75.6281 1267.6993,-73.6055 1260.5963,-72 1147.713,-46.4844 1012.1705,-29.8923 943.7454,-22.4771"/>
<polygon fill="#000000" stroke="#000000" points="944.066,-18.9915 933.7504,-21.4077 943.3213,-25.9518 944.066,-18.9915"/>
</g>
<!-- Logarithmic -->
<g id="node26" class="node">
<title>Logarithmic</title>
<ellipse fill="none" stroke="#000000" cx="1455.5963" cy="-90" rx="66.8882" ry="18"/>
<text text-anchor="middle" x="1455.5963" y="-86.3" font-family="Times,serif" font-size="14.00" fill="#000000">Logarithmic</text>
</g>
<!-- Logarithmic&#45;&gt;SISO -->
<g id="edge25" class="edge">
<title>Logarithmic&#45;&gt;SISO</title>
<path fill="none" stroke="#000000" d="M1406.7161,-77.5078C1397.7352,-75.4738 1388.4131,-73.5343 1379.5963,-72 1220.3825,-44.2939 1028.8686,-27.7003 943.9078,-21.1892"/>
<polygon fill="#000000" stroke="#000000" points="944.0788,-17.6922 933.843,-20.427 943.5502,-24.6722 944.0788,-17.6922"/>
</g>
<!-- Saturation -->
<g id="node27" class="node">
<title>Saturation</title>
<ellipse fill="none" stroke="#000000" cx="1600.5963" cy="-90" rx="59.5901" ry="18"/>
<text text-anchor="middle" x="1600.5963" y="-86.3" font-family="Times,serif" font-size="14.00" fill="#000000">Saturation</text>
</g>
<!-- Saturation&#45;&gt;SISO -->
<g id="edge26" class="edge">
<title>Saturation&#45;&gt;SISO</title>
<path fill="none" stroke="#000000" d="M1557.4086,-77.5343C1548.9083,-75.4216 1540.0151,-73.447 1531.5963,-72 1313.3479,-34.4892 1048.0048,-22.5891 944.224,-19.21"/>
<polygon fill="#000000" stroke="#000000" points="944.2169,-15.7081 934.1116,-18.8913 943.9964,-22.7047 944.2169,-15.7081"/>
</g>
<!-- SmoothSaturation -->
<g id="node28" class="node">
<title>SmoothSaturation</title>
<ellipse fill="none" stroke="#000000" cx="1711.5963" cy="-162" rx="95.5831" ry="18"/>
<text text-anchor="middle" x="1711.5963" y="-158.3" font-family="Times,serif" font-size="14.00" fill="#000000">SmoothSaturation</text>
</g>
<!-- SmoothSaturation&#45;&gt;Saturation -->
<g id="edge27" class="edge">
<title>SmoothSaturation&#45;&gt;Saturation</title>
<path fill="none" stroke="#000000" d="M1684.7263,-144.5708C1669.6764,-134.8087 1650.7587,-122.5377 1634.6757,-112.1056"/>
<polygon fill="#000000" stroke="#000000" points="1636.3693,-109.0323 1626.075,-106.5267 1632.56,-114.905 1636.3693,-109.0323"/>
</g>
<!-- Hysteresis -->
<g id="node29" class="node">
<title>Hysteresis</title>
<ellipse fill="none" stroke="#000000" cx="1738.5963" cy="-90" rx="60.3893" ry="18"/>
<text text-anchor="middle" x="1738.5963" y="-86.3" font-family="Times,serif" font-size="14.00" fill="#000000">Hysteresis</text>
</g>
<!-- Hysteresis&#45;&gt;SISO -->
<g id="edge28" class="edge">
<title>Hysteresis&#45;&gt;SISO</title>
<path fill="none" stroke="#000000" d="M1695.0559,-77.3403C1686.6662,-75.2716 1677.9037,-73.3628 1669.5963,-72 1528.3273,-48.8252 1086.5323,-26.7204 944.2372,-20.0415"/>
<polygon fill="#000000" stroke="#000000" points="944.2789,-16.5398 934.1265,-19.5693 943.9523,-23.5322 944.2789,-16.5398"/>
</g>
<!-- SimulatedSystem -->
<g id="node30" class="node">
<title>SimulatedSystem</title>
<ellipse fill="none" stroke="#000000" cx="1505.5963" cy="-162" rx="92.8835" ry="18"/>
<text text-anchor="middle" x="1505.5963" y="-158.3" font-family="Times,serif" font-size="14.00" fill="#000000">SimulatedSystem</text>
</g>
<!-- SimulatedSystem&#45;&gt;IIR -->
<g id="edge29" class="edge">
<title>SimulatedSystem&#45;&gt;IIR</title>
<path fill="none" stroke="#000000" d="M1439.3494,-149.3395C1427.4755,-147.3474 1415.1923,-145.4656 1403.5963,-144 1196.6283,-117.8416 1136.6412,-163.6862 935.5963,-108 933.4624,-107.4089 931.3052,-106.6884 929.1632,-105.8796"/>
<polygon fill="#000000" stroke="#000000" points="930.555,-102.6682 919.9884,-101.8951 927.7666,-109.0889 930.555,-102.6682"/>
</g>
<!-- FirstOrder -->
<g id="node31" class="node">
<title>FirstOrder</title>
<ellipse fill="none" stroke="#000000" cx="1355.5963" cy="-234" rx="60.3893" ry="18"/>
<text text-anchor="middle" x="1355.5963" y="-230.3" font-family="Times,serif" font-size="14.00" fill="#000000">FirstOrder</text>
</g>
<!-- FirstOrder&#45;&gt;SimulatedSystem -->
<g id="edge30" class="edge">
<title>FirstOrder&#45;&gt;SimulatedSystem</title>
<path fill="none" stroke="#000000" d="M1387.7751,-218.5542C1409.2819,-208.2309 1437.8537,-194.5165 1461.4747,-183.1784"/>
<polygon fill="#000000" stroke="#000000" points="1463.0908,-186.285 1470.5914,-178.8023 1460.0616,-179.9744 1463.0908,-186.285"/>
</g>
<!-- SecondOrder -->
<g id="node32" class="node">
<title>SecondOrder</title>
<ellipse fill="none" stroke="#000000" cx="1505.5963" cy="-234" rx="71.4873" ry="18"/>
<text text-anchor="middle" x="1505.5963" y="-230.3" font-family="Times,serif" font-size="14.00" fill="#000000">SecondOrder</text>
</g>
<!-- SecondOrder&#45;&gt;SimulatedSystem -->
<g id="edge31" class="edge">
<title>SecondOrder&#45;&gt;SimulatedSystem</title>
<path fill="none" stroke="#000000" d="M1505.5963,-215.8314C1505.5963,-208.131 1505.5963,-198.9743 1505.5963,-190.4166"/>
<polygon fill="#000000" stroke="#000000" points="1509.0964,-190.4132 1505.5963,-180.4133 1502.0964,-190.4133 1509.0964,-190.4132"/>
</g>
<!-- Pendulum -->
<g id="node33" class="node">
<title>Pendulum</title>
<ellipse fill="none" stroke="#000000" cx="1652.5963" cy="-234" rx="57.6901" ry="18"/>
<text text-anchor="middle" x="1652.5963" y="-230.3" font-family="Times,serif" font-size="14.00" fill="#000000">Pendulum</text>
</g>
<!-- Pendulum&#45;&gt;SimulatedSystem -->
<g id="edge32" class="edge">
<title>Pendulum&#45;&gt;SimulatedSystem</title>
<path fill="none" stroke="#000000" d="M1621.4214,-218.7307C1600.2912,-208.3812 1572.0814,-194.5641 1548.7925,-183.1573"/>
<polygon fill="#000000" stroke="#000000" points="1550.3265,-180.0114 1539.8063,-178.7559 1547.2473,-186.2979 1550.3265,-180.0114"/>
</g>
<!-- CrossCorrelation -->
<g id="node34" class="node">
<title>CrossCorrelation</title>
<ellipse fill="none" stroke="#000000" cx="1818.5963" cy="-234" rx="89.8845" ry="18"/>
<text text-anchor="middle" x="1818.5963" y="-230.3" font-family="Times,serif" font-size="14.00" fill="#000000">CrossCorrelation</text>
</g>
<!-- DFT -->
<g id="node35" class="node">
<title>DFT</title>
<ellipse fill="none" stroke="#000000" cx="1956.5963" cy="-234" rx="30.5947" ry="18"/>
<text text-anchor="middle" x="1956.5963" y="-230.3" font-family="Times,serif" font-size="14.00" fill="#000000">DFT</text>
</g>
<!-- FFT -->
<g id="node36" class="node">
<title>FFT</title>
<ellipse fill="none" stroke="#000000" cx="2034.5963" cy="-234" rx="29.4969" ry="18"/>
<text text-anchor="middle" x="2034.5963" y="-230.3" font-family="Times,serif" font-size="14.00" fill="#000000">FFT</text>
</g>
<!-- DCT -->
<g id="node37" class="node">
<title>DCT</title>
<ellipse fill="none" stroke="#000000" cx="2112.5963" cy="-234" rx="30.5947" ry="18"/>
<text text-anchor="middle" x="2112.5963" y="-230.3" font-family="Times,serif" font-size="14.00" fill="#000000">DCT</text>
</g>
<!-- Wavelet -->
<g id="node38" class="node">
<title>Wavelet</title>
<ellipse fill="none" stroke="#000000" cx="2208.5963" cy="-234" rx="47.3916" ry="18"/>
<text text-anchor="middle" x="2208.5963" y="-230.3" font-family="Times,serif" font-size="14.00" fill="#000000">Wavelet</text>
</g>
<!-- Source -->
<g id="node39" class="node">
<title>Source</title>
<ellipse fill="none" stroke="#000000" cx="2277.5963" cy="-90" rx="42.7926" ry="18"/>
<text text-anchor="middle" x="2277.5963" y="-86.3" font-family="Times,serif" font-size="14.00" fill="#000000">Source</text>
</g>
<!-- std::istream -->
<g id="node40" class="node">
<title>std::istream</title>
<ellipse fill="none" stroke="#000000" cx="2277.5963" cy="-18" rx="66.8882" ry="18"/>
<text text-anchor="middle" x="2277.5963" y="-14.3" font-family="Times,serif" font-size="14.00" fill="#000000">std::istream</text>
</g>
<!-- Source&#45;&gt;std::istream -->
<g id="edge33" class="edge">
<title>Source&#45;&gt;std::istream</title>
<path fill="none" stroke="#000000" d="M2277.5963,-71.8314C2277.5963,-64.131 2277.5963,-54.9743 2277.5963,-46.4166"/>
<polygon fill="#000000" stroke="#000000" points="2281.0964,-46.4132 2277.5963,-36.4133 2274.0964,-46.4133 2281.0964,-46.4132"/>
</g>
<!-- NoiseSource -->
<g id="node41" class="node">
<title>NoiseSource</title>
<ellipse fill="none" stroke="#000000" cx="1954.5963" cy="-162" rx="69.5877" ry="18"/>
<text text-anchor="middle" x="1954.5963" y="-158.3" font-family="Times,serif" font-size="14.00" fill="#000000">NoiseSource</text>
</g>
<!-- NoiseSource&#45;&gt;Source -->
<g id="edge34" class="edge">
<title>NoiseSource&#45;&gt;Source</title>
<path fill="none" stroke="#000000" d="M2006.8542,-150.0449C2015.7743,-148.0181 2024.9496,-145.9419 2033.5963,-144 2101.5718,-128.7342 2180.2734,-111.3732 2229.4999,-100.5517"/>
<polygon fill="#000000" stroke="#000000" points="2230.5267,-103.9097 2239.5425,-98.3449 2229.0243,-97.0728 2230.5267,-103.9097"/>
</g>
<!-- Impulse -->
<g id="node42" class="node">
<title>Impulse</title>
<ellipse fill="none" stroke="#000000" cx="2090.5963" cy="-162" rx="48.1917" ry="18"/>
<text text-anchor="middle" x="2090.5963" y="-158.3" font-family="Times,serif" font-size="14.00" fill="#000000">Impulse</text>
</g>
<!-- Impulse&#45;&gt;Source -->
<g id="edge35" class="edge">
<title>Impulse&#45;&gt;Source</title>
<path fill="none" stroke="#000000" d="M2124.4606,-148.9613C2155.8812,-136.8636 2202.7225,-118.8284 2236.3198,-105.8926"/>
<polygon fill="#000000" stroke="#000000" points="2237.7799,-109.0809 2245.8545,-102.2215 2235.2647,-102.5484 2237.7799,-109.0809"/>
</g>
<!-- Step -->
<g id="node43" class="node">
<title>Step</title>
<ellipse fill="none" stroke="#000000" cx="2189.5963" cy="-162" rx="32.4942" ry="18"/>
<text text-anchor="middle" x="2189.5963" y="-158.3" font-family="Times,serif" font-size="14.00" fill="#000000">Step</text>
</g>
<!-- Step&#45;&gt;Source -->
<g id="edge36" class="edge">
<title>Step&#45;&gt;Source</title>
<path fill="none" stroke="#000000" d="M2207.83,-147.0816C2220.0343,-137.0962 2236.322,-123.7699 2250.0904,-112.5048"/>
<polygon fill="#000000" stroke="#000000" points="2252.3327,-115.1925 2257.856,-106.1512 2247.9,-109.7748 2252.3327,-115.1925"/>
</g>
<!-- Ramp -->
<g id="node44" class="node">
<title>Ramp</title>
<ellipse fill="none" stroke="#000000" cx="2277.5963" cy="-162" rx="37.8943" ry="18"/>
<text text-anchor="middle" x="2277.5963" y="-158.3" font-family="Times,serif" font-size="14.00" fill="#000000">Ramp</text>
</g>
<!-- Ramp&#45;&gt;Source -->
<g id="edge37" class="edge">
<title>Ramp&#45;&gt;Source</title>
<path fill="none" stroke="#000000" d="M2277.5963,-143.8314C2277.5963,-136.131 2277.5963,-126.9743 2277.5963,-118.4166"/>
<polygon fill="#000000" stroke="#000000" points="2281.0964,-118.4132 2277.5963,-108.4133 2274.0964,-118.4133 2281.0964,-118.4132"/>
</g>
<!-- Triangle -->
<g id="node45" class="node">
<title>Triangle</title>
<ellipse fill="none" stroke="#000000" cx="2382.5963" cy="-162" rx="49.2915" ry="18"/>
<text text-anchor="middle" x="2382.5963" y="-158.3" font-family="Times,serif" font-size="14.00" fill="#000000">Triangle</text>
</g>
<!-- Triangle&#45;&gt;Source -->
<g id="edge38" class="edge">
<title>Triangle&#45;&gt;Source</title>
<path fill="none" stroke="#000000" d="M2359.2934,-146.0209C2344.408,-135.8137 2324.931,-122.4581 2308.7282,-111.3476"/>
<polygon fill="#000000" stroke="#000000" points="2310.3401,-108.2091 2300.1134,-105.4403 2306.3813,-113.9822 2310.3401,-108.2091"/>
</g>
<!-- Sine -->
<g id="node46" class="node">
<title>Sine</title>
<ellipse fill="none" stroke="#000000" cx="2481.5963" cy="-162" rx="31.3957" ry="18"/>
<text text-anchor="middle" x="2481.5963" y="-158.3" font-family="Times,serif" font-size="14.00" fill="#000000">Sine</text>
</g>
<!-- Sine&#45;&gt;Source -->
<g id="edge39" class="edge">
<title>Sine&#45;&gt;Source</title>
<path fill="none" stroke="#000000" d="M2457.0357,-150.7708C2451.6576,-148.4374 2445.9663,-146.0631 2440.5963,-144 2401.1283,-128.837 2355.3619,-113.9006 2322.39,-103.5939"/>
<polygon fill="#000000" stroke="#000000" points="2323.1774,-100.1735 2312.5892,-100.5487 2321.1004,-106.8583 2323.1774,-100.1735"/>
</g>
<!-- Digital -->
<g id="node47" class="node">
<title>Digital</title>
<ellipse fill="none" stroke="#000000" cx="2572.5963" cy="-162" rx="42.4939" ry="18"/>
<text text-anchor="middle" x="2572.5963" y="-158.3" font-family="Times,serif" font-size="14.00" fill="#000000">Digital</text>
</g>
<!-- Digital&#45;&gt;Source -->
<g id="edge40" class="edge">
<title>Digital&#45;&gt;Source</title>
<path fill="none" stroke="#000000" d="M2540.6852,-150.0696C2534.4015,-147.9101 2527.8253,-145.7814 2521.5963,-144 2455.0583,-124.9713 2376.708,-108.6908 2327.0983,-99.1215"/>
<polygon fill="#000000" stroke="#000000" points="2327.747,-95.6822 2317.2674,-97.2405 2326.4315,-102.5575 2327.747,-95.6822"/>
</g>
<!-- UnipolarNRZ -->
<g id="node48" class="node">
<title>UnipolarNRZ</title>
<ellipse fill="none" stroke="#000000" cx="2346.5963" cy="-234" rx="72.2875" ry="18"/>
<text text-anchor="middle" x="2346.5963" y="-230.3" font-family="Times,serif" font-size="14.00" fill="#000000">UnipolarNRZ</text>
</g>
<!-- UnipolarNRZ&#45;&gt;Digital -->
<g id="edge41" class="edge">
<title>UnipolarNRZ&#45;&gt;Digital</title>
<path fill="none" stroke="#000000" d="M2393.1825,-220.178C2428.5345,-209.5553 2478.2759,-194.3221 2521.5963,-180 2524.5326,-179.0292 2527.5576,-178.0103 2530.5999,-176.9716"/>
<polygon fill="#000000" stroke="#000000" points="2531.9805,-180.1976 2540.2879,-173.622 2529.6931,-173.5819 2531.9805,-180.1976"/>
</g>
<!-- PolarNRZ -->
<g id="node49" class="node">
<title>PolarNRZ</title>
<ellipse fill="none" stroke="#000000" cx="2492.5963" cy="-234" rx="55.7903" ry="18"/>
<text text-anchor="middle" x="2492.5963" y="-230.3" font-family="Times,serif" font-size="14.00" fill="#000000">PolarNRZ</text>
</g>
<!-- PolarNRZ&#45;&gt;Digital -->
<g id="edge42" class="edge">
<title>PolarNRZ&#45;&gt;Digital</title>
<path fill="none" stroke="#000000" d="M2511.5552,-216.937C2522.0669,-207.4765 2535.2887,-195.5768 2546.737,-185.2734"/>
<polygon fill="#000000" stroke="#000000" points="2549.2326,-187.7361 2554.3242,-178.4449 2544.5498,-182.5331 2549.2326,-187.7361"/>
</g>
<!-- Manchester -->
<g id="node50" class="node">
<title>Manchester</title>
<ellipse fill="none" stroke="#000000" cx="2632.5963" cy="-234" rx="65.7887" ry="18"/>
<text text-anchor="middle" x="2632.5963" y="-230.3" font-family="Times,serif" font-size="14.00" fill="#000000">Manchester</text>
</g>
<!-- Manchester&#45;&gt;Digital -->
<g id="edge43" class="edge">
<title>Manchester&#45;&gt;Digital</title>
<path fill="none" stroke="#000000" d="M2617.7648,-216.2022C2610.3905,-207.3531 2601.3569,-196.5127 2593.3115,-186.8583"/>
<polygon fill="#000000" stroke="#000000" points="2595.9347,-184.5388 2586.844,-179.0972 2590.5571,-189.0201 2595.9347,-184.5388"/>
</g>
<!-- Bipolar -->
<g id="node51" class="node">
<title>Bipolar</title>
<ellipse fill="none" stroke="#000000" cx="2760.5963" cy="-234" rx="44.393" ry="18"/>
<text text-anchor="middle" x="2760.5963" y="-230.3" font-family="Times,serif" font-size="14.00" fill="#000000">Bipolar</text>
</g>
<!-- Bipolar&#45;&gt;Digital -->
<g id="edge44" class="edge">
<title>Bipolar&#45;&gt;Digital</title>
<path fill="none" stroke="#000000" d="M2728.278,-221.6228C2696.6502,-209.51 2648.3425,-191.0092 2613.934,-177.8314"/>
<polygon fill="#000000" stroke="#000000" points="2614.7704,-174.4039 2604.18,-174.0959 2612.2668,-180.9409 2614.7704,-174.4039"/>
</g>
</g>
</svg>
