<?xml version="1.0" encoding="UTF-8" standalone="no"?>
<!DOCTYPE svg PUBLIC "-//W3C//DTD SVG 1.1//EN"
 "http://www.w3.org/Graphics/SVG/1.1/DTD/svg11.dtd">
<!-- Generated by graphviz version 2.40.1 (20161225.0304)
 -->
<!-- Title: %3 Pages: 1 -->
<svg width="1534pt" height="260pt"
 viewBox="0.00 0.00 1534.04 260.00" xmlns="http://www.w3.org/2000/svg" xmlns:xlink="http://www.w3.org/1999/xlink">
<g id="graph0" class="graph" transform="scale(1 1) rotate(0) translate(4 256)">
<title>%3</title>
<polygon fill="#ffffff" stroke="transparent" points="-4,4 -4,-256 1530.0421,-256 1530.0421,4 -4,4"/>
<!-- Cascade -->
<g id="node1" class="node">
<title>Cascade</title>
<ellipse fill="none" stroke="#000000" cx="161.5963" cy="-90" rx="49.2915" ry="18"/>
<text text-anchor="middle" x="161.5963" y="-86.3" font-family="Times,serif" font-size="14.00" fill="#000000">Cascade</text>
</g>
<!-- SISO -->
<g id="node2" class="node">
<title>SISO</title>
<ellipse fill="none" stroke="#000000" cx="563.5963" cy="-18" rx="34.394" ry="18"/>
<text text-anchor="middle" x="563.5963" y="-14.3" font-family="Times,serif" font-size="14.00" fill="#000000">SISO</text>
</g>
<!-- Cascade&#45;&gt;SISO -->
<g id="edge1" class="edge">
<title>Cascade&#45;&gt;SISO</title>
<path fill="none" stroke="#000000" d="M198.195,-77.7607C205.2472,-75.6533 212.613,-73.6227 219.5963,-72 326.0754,-47.258 453.7641,-30.5267 519.5735,-22.834"/>
<polygon fill="#000000" stroke="#000000" points="520.0591,-26.3013 529.5915,-21.6771 519.256,-19.3475 520.0591,-26.3013"/>
</g>
<!-- Feedback -->
<g id="node3" class="node">
<title>Feedback</title>
<ellipse fill="none" stroke="#000000" cx="282.5963" cy="-90" rx="53.8905" ry="18"/>
<text text-anchor="middle" x="282.5963" y="-86.3" font-family="Times,serif" font-size="14.00" fill="#000000">Feedback</text>
</g>
<!-- Feedback&#45;&gt;SISO -->
<g id="edge2" class="edge">
<title>Feedback&#45;&gt;SISO</title>
<path fill="none" stroke="#000000" d="M323.5435,-78.073C330.8742,-76.0028 338.452,-73.9048 345.5963,-72 406.9377,-55.6451 478.4338,-38.2507 522.3549,-27.7546"/>
<polygon fill="#000000" stroke="#000000" points="523.1834,-31.1553 532.0989,-25.4311 521.5597,-24.3462 523.1834,-31.1553"/>
</g>
<!-- Noise -->
<g id="node4" class="node">
<title>Noise</title>
<ellipse fill="none" stroke="#000000" cx="391.5963" cy="-90" rx="37.0935" ry="18"/>
<text text-anchor="middle" x="391.5963" y="-86.3" font-family="Times,serif" font-size="14.00" fill="#000000">Noise</text>
</g>
<!-- Noise&#45;&gt;SISO -->
<g id="edge3" class="edge">
<title>Noise&#45;&gt;SISO</title>
<path fill="none" stroke="#000000" d="M419.9986,-78.1107C449.3121,-65.8399 495.1487,-46.6525 527.1254,-33.2669"/>
<polygon fill="#000000" stroke="#000000" points="528.6977,-36.4031 536.5706,-29.3131 525.9946,-29.946 528.6977,-36.4031"/>
</g>
<!-- AWGN -->
<g id="node5" class="node">
<title>AWGN</title>
<ellipse fill="none" stroke="#000000" cx="41.5963" cy="-162" rx="41.6928" ry="18"/>
<text text-anchor="middle" x="41.5963" y="-158.3" font-family="Times,serif" font-size="14.00" fill="#000000">AWGN</text>
</g>
<!-- AWGN&#45;&gt;Noise -->
<g id="edge4" class="edge">
<title>AWGN&#45;&gt;Noise</title>
<path fill="none" stroke="#000000" d="M72.4988,-149.7641C78.7495,-147.6055 85.3282,-145.555 91.5963,-144 202.2588,-116.5463 235.3207,-136.9689 345.5963,-108 348.3956,-107.2646 351.2564,-106.4103 354.1137,-105.4812"/>
<polygon fill="#000000" stroke="#000000" points="355.4511,-108.7209 363.7209,-102.0981 353.1261,-102.1183 355.4511,-108.7209"/>
</g>
<!-- PinkNoise -->
<g id="node6" class="node">
<title>PinkNoise</title>
<ellipse fill="none" stroke="#000000" cx="158.5963" cy="-162" rx="57.6901" ry="18"/>
<text text-anchor="middle" x="158.5963" y="-158.3" font-family="Times,serif" font-size="14.00" fill="#000000">PinkNoise</text>
</g>
<!-- PinkNoise&#45;&gt;Noise -->
<g id="edge5" class="edge">
<title>PinkNoise&#45;&gt;Noise</title>
<path fill="none" stroke="#000000" d="M201.8345,-150.0111C248.2929,-137.0408 319.0358,-117.0103 345.5963,-108 348.1722,-107.1261 350.816,-106.1925 353.4713,-105.2273"/>
<polygon fill="#000000" stroke="#000000" points="354.8995,-108.4299 363.0364,-101.6444 352.444,-101.8747 354.8995,-108.4299"/>
</g>
<!-- BurstNoise -->
<g id="node7" class="node">
<title>BurstNoise</title>
<ellipse fill="none" stroke="#000000" cx="297.5963" cy="-162" rx="63.0888" ry="18"/>
<text text-anchor="middle" x="297.5963" y="-158.3" font-family="Times,serif" font-size="14.00" fill="#000000">BurstNoise</text>
</g>
<!-- BurstNoise&#45;&gt;Noise -->
<g id="edge6" class="edge">
<title>BurstNoise&#45;&gt;Noise</title>
<path fill="none" stroke="#000000" d="M319.873,-144.937C332.9114,-134.9502 349.4983,-122.2453 363.4363,-111.5693"/>
<polygon fill="#000000" stroke="#000000" points="365.9065,-114.0861 371.717,-105.2267 361.6499,-108.5289 365.9065,-114.0861"/>
</g>
<!-- SaltAndPepperNoise -->
<g id="node8" class="node">
<title>SaltAndPepperNoise</title>
<ellipse fill="none" stroke="#000000" cx="485.5963" cy="-162" rx="106.6812" ry="18"/>
<text text-anchor="middle" x="485.5963" y="-158.3" font-family="Times,serif" font-size="14.00" fill="#000000">SaltAndPepperNoise</text>
</g>
<!-- SaltAndPepperNoise&#45;&gt;Noise -->
<g id="edge7" class="edge">
<title>SaltAndPepperNoise&#45;&gt;Noise</title>
<path fill="none" stroke="#000000" d="M462.3603,-144.2022C449.4838,-134.3393 433.3778,-122.0028 419.7855,-111.5917"/>
<polygon fill="#000000" stroke="#000000" points="421.7657,-108.6997 411.6986,-105.3975 417.5091,-114.2569 421.7657,-108.6997"/>
</g>
<!-- IIR -->
<g id="node9" class="node">
<title>IIR</title>
<ellipse fill="none" stroke="#000000" cx="473.5963" cy="-90" rx="27" ry="18"/>
<text text-anchor="middle" x="473.5963" y="-86.3" font-family="Times,serif" font-size="14.00" fill="#000000">IIR</text>
</g>
<!-- IIR&#45;&gt;SISO -->
<g id="edge8" class="edge">
<title>IIR&#45;&gt;SISO</title>
<path fill="none" stroke="#000000" d="M490.9492,-76.1177C503.965,-65.705 522.0191,-51.2618 536.8727,-39.3789"/>
<polygon fill="#000000" stroke="#000000" points="539.1208,-42.0626 544.7431,-33.0826 534.7479,-36.5965 539.1208,-42.0626"/>
</g>
<!-- FIR -->
<g id="node10" class="node">
<title>FIR</title>
<ellipse fill="none" stroke="#000000" cx="637.5963" cy="-162" rx="27.0966" ry="18"/>
<text text-anchor="middle" x="637.5963" y="-158.3" font-family="Times,serif" font-size="14.00" fill="#000000">FIR</text>
</g>
<!-- FIR&#45;&gt;IIR -->
<g id="edge9" class="edge">
<title>FIR&#45;&gt;IIR</title>
<path fill="none" stroke="#000000" d="M616.046,-150.8276C611.3228,-148.4907 606.3213,-146.1005 601.5963,-144 561.4745,-126.1636 549.7182,-125.8364 509.5963,-108 507.8244,-107.2123 506.0137,-106.3839 504.1933,-105.5328"/>
<polygon fill="#000000" stroke="#000000" points="505.6745,-102.3614 495.1466,-101.1724 502.6352,-108.6672 505.6745,-102.3614"/>
</g>
<!-- Median -->
<g id="node11" class="node">
<title>Median</title>
<ellipse fill="none" stroke="#000000" cx="563.5963" cy="-90" rx="45.4919" ry="18"/>
<text text-anchor="middle" x="563.5963" y="-86.3" font-family="Times,serif" font-size="14.00" fill="#000000">Median</text>
</g>
<!-- Median&#45;&gt;SISO -->
<g id="edge10" class="edge">
<title>Median&#45;&gt;SISO</title>
<path fill="none" stroke="#000000" d="M563.5963,-71.8314C563.5963,-64.131 563.5963,-54.9743 563.5963,-46.4166"/>
<polygon fill="#000000" stroke="#000000" points="567.0964,-46.4132 563.5963,-36.4133 560.0964,-46.4133 567.0964,-46.4132"/>
</g>
<!-- PLL -->
<g id="node12" class="node">
<title>PLL</title>
<ellipse fill="none" stroke="#000000" cx="655.5963" cy="-90" rx="28.6953" ry="18"/>
<text text-anchor="middle" x="655.5963" y="-86.3" font-family="Times,serif" font-size="14.00" fill="#000000">PLL</text>
</g>
<!-- PLL&#45;&gt;SISO -->
<g id="edge11" class="edge">
<title>PLL&#45;&gt;SISO</title>
<path fill="none" stroke="#000000" d="M637.4201,-75.7751C624.1648,-65.4014 605.9722,-51.1638 590.964,-39.4182"/>
<polygon fill="#000000" stroke="#000000" points="593.0374,-36.5965 583.0053,-33.1896 588.7232,-42.109 593.0374,-36.5965"/>
</g>
<!-- Polynomial -->
<g id="node13" class="node">
<title>Polynomial</title>
<ellipse fill="none" stroke="#000000" cx="763.5963" cy="-90" rx="61.99" ry="18"/>
<text text-anchor="middle" x="763.5963" y="-86.3" font-family="Times,serif" font-size="14.00" fill="#000000">Polynomial</text>
</g>
<!-- Polynomial&#45;&gt;SISO -->
<g id="edge12" class="edge">
<title>Polynomial&#45;&gt;SISO</title>
<path fill="none" stroke="#000000" d="M724.5595,-75.9468C689.0224,-63.1534 636.8753,-44.3804 601.649,-31.699"/>
<polygon fill="#000000" stroke="#000000" points="602.7844,-28.3879 592.19,-28.2937 600.4133,-34.9741 602.7844,-28.3879"/>
</g>
<!-- Sinusoid -->
<g id="node14" class="node">
<title>Sinusoid</title>
<ellipse fill="none" stroke="#000000" cx="893.5963" cy="-90" rx="50.8918" ry="18"/>
<text text-anchor="middle" x="893.5963" y="-86.3" font-family="Times,serif" font-size="14.00" fill="#000000">Sinusoid</text>
</g>
<!-- Sinusoid&#45;&gt;SISO -->
<g id="edge13" class="edge">
<title>Sinusoid&#45;&gt;SISO</title>
<path fill="none" stroke="#000000" d="M855.9831,-77.9152C848.9121,-75.8171 841.5547,-73.7501 834.5963,-72 754.8298,-51.9378 660.354,-34.5272 606.6494,-25.215"/>
<polygon fill="#000000" stroke="#000000" points="607.2376,-21.7648 596.7887,-23.5169 606.0496,-28.6633 607.2376,-21.7648"/>
</g>
<!-- Logarithmic -->
<g id="node15" class="node">
<title>Logarithmic</title>
<ellipse fill="none" stroke="#000000" cx="1029.5963" cy="-90" rx="66.8882" ry="18"/>
<text text-anchor="middle" x="1029.5963" y="-86.3" font-family="Times,serif" font-size="14.00" fill="#000000">Logarithmic</text>
</g>
<!-- Logarithmic&#45;&gt;SISO -->
<g id="edge14" class="edge">
<title>Logarithmic&#45;&gt;SISO</title>
<path fill="none" stroke="#000000" d="M980.6825,-77.6937C971.705,-75.6409 962.3927,-73.6468 953.5963,-72 828.8831,-48.6519 679.9842,-30.7722 607.5402,-22.7059"/>
<polygon fill="#000000" stroke="#000000" points="607.7424,-19.2071 597.4185,-21.5876 606.9736,-26.1647 607.7424,-19.2071"/>
</g>
<!-- SimulatedSystem -->
<g id="node16" class="node">
<title>SimulatedSystem</title>
<ellipse fill="none" stroke="#000000" cx="775.5963" cy="-162" rx="92.8835" ry="18"/>
<text text-anchor="middle" x="775.5963" y="-158.3" font-family="Times,serif" font-size="14.00" fill="#000000">SimulatedSystem</text>
</g>
<!-- SimulatedSystem&#45;&gt;IIR -->
<g id="edge15" class="edge">
<title>SimulatedSystem&#45;&gt;IIR</title>
<path fill="none" stroke="#000000" d="M708.895,-149.407C636.3704,-135.564 528.2515,-114.4309 509.5963,-108 507.7135,-107.351 505.8038,-106.6234 503.8964,-105.8427"/>
<polygon fill="#000000" stroke="#000000" points="505.0702,-102.5327 494.5151,-101.6157 502.1945,-108.9148 505.0702,-102.5327"/>
</g>
<!-- FirstOrder -->
<g id="node17" class="node">
<title>FirstOrder</title>
<ellipse fill="none" stroke="#000000" cx="625.5963" cy="-234" rx="60.3893" ry="18"/>
<text text-anchor="middle" x="625.5963" y="-230.3" font-family="Times,serif" font-size="14.00" fill="#000000">FirstOrder</text>
</g>
<!-- FirstOrder&#45;&gt;SimulatedSystem -->
<g id="edge16" class="edge">
<title>FirstOrder&#45;&gt;SimulatedSystem</title>
<path fill="none" stroke="#000000" d="M657.7751,-218.5542C679.2819,-208.2309 707.8537,-194.5165 731.4747,-183.1784"/>
<polygon fill="#000000" stroke="#000000" points="733.0908,-186.285 740.5914,-178.8023 730.0616,-179.9744 733.0908,-186.285"/>
</g>
<!-- SecondOrder -->
<g id="node18" class="node">
<title>SecondOrder</title>
<ellipse fill="none" stroke="#000000" cx="775.5963" cy="-234" rx="71.4873" ry="18"/>
<text text-anchor="middle" x="775.5963" y="-230.3" font-family="Times,serif" font-size="14.00" fill="#000000">SecondOrder</text>
</g>
<!-- SecondOrder&#45;&gt;SimulatedSystem -->
<g id="edge17" class="edge">
<title>SecondOrder&#45;&gt;SimulatedSystem</title>
<path fill="none" stroke="#000000" d="M775.5963,-215.8314C775.5963,-208.131 775.5963,-198.9743 775.5963,-190.4166"/>
<polygon fill="#000000" stroke="#000000" points="779.0964,-190.4132 775.5963,-180.4133 772.0964,-190.4133 779.0964,-190.4132"/>
</g>
<!-- Pendulum -->
<g id="node19" class="node">
<title>Pendulum</title>
<ellipse fill="none" stroke="#000000" cx="922.5963" cy="-234" rx="57.6901" ry="18"/>
<text text-anchor="middle" x="922.5963" y="-230.3" font-family="Times,serif" font-size="14.00" fill="#000000">Pendulum</text>
</g>
<!-- Pendulum&#45;&gt;SimulatedSystem -->
<g id="edge18" class="edge">
<title>Pendulum&#45;&gt;SimulatedSystem</title>
<path fill="none" stroke="#000000" d="M891.4214,-218.7307C870.2912,-208.3812 842.0814,-194.5641 818.7925,-183.1573"/>
<polygon fill="#000000" stroke="#000000" points="820.3265,-180.0114 809.8063,-178.7559 817.2473,-186.2979 820.3265,-180.0114"/>
</g>
<!-- CrossCorrelation -->
<g id="node20" class="node">
<title>CrossCorrelation</title>
<ellipse fill="none" stroke="#000000" cx="1088.5963" cy="-234" rx="89.8845" ry="18"/>
<text text-anchor="middle" x="1088.5963" y="-230.3" font-family="Times,serif" font-size="14.00" fill="#000000">CrossCorrelation</text>
</g>
<!-- DFT -->
<g id="node21" class="node">
<title>DFT</title>
<ellipse fill="none" stroke="#000000" cx="1226.5963" cy="-234" rx="30.5947" ry="18"/>
<text text-anchor="middle" x="1226.5963" y="-230.3" font-family="Times,serif" font-size="14.00" fill="#000000">DFT</text>
</g>
<!-- FFT -->
<g id="node22" class="node">
<title>FFT</title>
<ellipse fill="none" stroke="#000000" cx="1304.5963" cy="-234" rx="29.4969" ry="18"/>
<text text-anchor="middle" x="1304.5963" y="-230.3" font-family="Times,serif" font-size="14.00" fill="#000000">FFT</text>
</g>
<!-- DCT -->
<g id="node23" class="node">
<title>DCT</title>
<ellipse fill="none" stroke="#000000" cx="1382.5963" cy="-234" rx="30.5947" ry="18"/>
<text text-anchor="middle" x="1382.5963" y="-230.3" font-family="Times,serif" font-size="14.00" fill="#000000">DCT</text>
</g>
<!-- Wavelet -->
<g id="node24" class="node">
<title>Wavelet</title>
<ellipse fill="none" stroke="#000000" cx="1478.5963" cy="-234" rx="47.3916" ry="18"/>
<text text-anchor="middle" x="1478.5963" y="-230.3" font-family="Times,serif" font-size="14.00" fill="#000000">Wavelet</text>
</g>
</g>
</svg>
